<?xml version="1.0" encoding="UTF-8" standalone="no"?>
<svg
   xmlns:dc="http://purl.org/dc/elements/1.1/"
   xmlns:cc="http://creativecommons.org/ns#"
   xmlns:rdf="http://www.w3.org/1999/02/22-rdf-syntax-ns#"
   xmlns:svg="http://www.w3.org/2000/svg"
   xmlns="http://www.w3.org/2000/svg"
   xmlns:sodipodi="http://sodipodi.sourceforge.net/DTD/sodipodi-0.dtd"
   xmlns:inkscape="http://www.inkscape.org/namespaces/inkscape"
   width="1000"
   height="618"
   viewBox="0 0 264.58332 163.5125"
   version="1.1"
   id="svg8"
   inkscape:export-filename="/home/zamza/Documents/HS/Notes Template/general_graphic_template.svg.png"
   inkscape:export-xdpi="96"
   inkscape:export-ydpi="96"
   inkscape:version="1.0.1 (3bc2e813f5, 2020-09-07)"
   sodipodi:docname="apollonios.svg">
  <defs
     id="defs2" />
  <sodipodi:namedview
     id="base"
     pagecolor="#ffffff"
     bordercolor="#666666"
     borderopacity="1.0"
     inkscape:pageopacity="0.0"
     inkscape:pageshadow="2"
     inkscape:zoom="2.8"
     inkscape:cx="484.63264"
     inkscape:cy="323.96976"
     inkscape:document-units="mm"
     inkscape:current-layer="layer2"
     inkscape:document-rotation="0"
     showgrid="false"
     units="px"
     width="1000px"
     inkscape:window-width="1865"
     inkscape:window-height="1112"
     inkscape:window-x="30"
     inkscape:window-y="75"
     inkscape:window-maximized="0" />
  <metadata
     id="metadata5">
    <rdf:RDF>
      <cc:Work
         rdf:about="">
        <dc:format>image/svg+xml</dc:format>
        <dc:type
           rdf:resource="http://purl.org/dc/dcmitype/StillImage" />
        <dc:title />
      </cc:Work>
    </rdf:RDF>
  </metadata>
  <g
     inkscape:label="Layer 1"
     inkscape:groupmode="layer"
     id="layer1"
     style="display:inline">
    <g
       id="g968"
       style="stroke:#4263eb"
       transform="translate(-5.7266379,-21.595652)">
      <path
         style="fill:none;stroke:#4263eb;stroke-width:0.16314px;stroke-linecap:butt;stroke-linejoin:miter;stroke-opacity:1"
         d="M 89.150944,104.0861 124.14921,74.287978"
         id="path830" />
      <path
         style="fill:none;stroke:#4263eb;stroke-width:0.16314px;stroke-linecap:butt;stroke-linejoin:miter;stroke-opacity:1"
         d="M 94.351087,39.289712 124.14921,74.287978"
         id="path830-2" />
      <path
         style="fill:none;stroke:#4263eb;stroke-width:0.16314px;stroke-linecap:butt;stroke-linejoin:miter;stroke-opacity:1"
         d="M 59.352814,69.087835 89.150944,104.0861"
         id="path830-2-9" />
      <path
         style="fill:none;stroke:#4263eb;stroke-width:0.16314px;stroke-linecap:butt;stroke-linejoin:miter;stroke-opacity:1"
         d="M 59.35282,69.087833 94.351087,39.289712"
         id="path830-1" />
    </g>
    <text
       xml:space="preserve"
       style="font-size:3.88056px;line-height:1.25;font-family:sans-serif;fill:#fa5252;stroke-width:0.264583"
       x="115.06984"
       y="67.803825"
       id="text917"><tspan
         sodipodi:role="line"
         id="tspan915"
         x="115.06984"
         y="67.803825"
         style="fill:#fa5252;stroke-width:0.264583">m</tspan></text>
    <g
       id="g1027"
       style="fill:#748ffc;stroke:#5c7cfa"
       transform="translate(-5.7266379,-21.595652)">
      <path
         style="fill:#748ffc;stroke:#5c7cfa;stroke-width:0.16314px;stroke-linecap:butt;stroke-linejoin:miter;stroke-opacity:1"
         d="M 89.150944,104.0861 169.41985,87.05694"
         id="path834" />
      <path
         style="fill:#748ffc;stroke:#5c7cfa;stroke-width:0.16314px;stroke-linecap:butt;stroke-linejoin:miter;stroke-opacity:1"
         d="M 89.150943,104.0861 106.1801,184.35502"
         id="path834-2" />
      <path
         style="fill:#748ffc;stroke:#5c7cfa;stroke-width:0.16314px;stroke-linecap:butt;stroke-linejoin:miter;stroke-opacity:1"
         d="m 169.41985,87.05694 17.02916,80.26892"
         id="path834-2-7" />
      <path
         style="fill:#748ffc;stroke:#5c7cfa;stroke-width:0.16314px;stroke-linecap:butt;stroke-linejoin:miter;stroke-opacity:1"
         d="m 106.1801,184.35502 80.26891,-17.02916"
         id="path834-0" />
    </g>
    <g
       id="g1192"
       style="stroke:#adb5bd"
       transform="translate(-5.7266379,-21.595652)">
      <path
         style="fill:none;stroke:#adb5bd;stroke-width:0.163168px;stroke-linecap:butt;stroke-linejoin:miter;stroke-opacity:1"
         d="M 182.19042,41.77712 169.41985,87.05694"
         id="path832-9" />
      <path
         style="fill:none;stroke:#adb5bd;stroke-width:0.163168px;stroke-linecap:butt;stroke-linejoin:miter;stroke-opacity:1"
         d="m 136.91995,29.008134 -12.77057,45.27982"
         id="path832-9-3" />
      <path
         style="fill:none;stroke:#adb5bd;stroke-width:0.163168px;stroke-linecap:butt;stroke-linejoin:miter;stroke-opacity:1"
         d="m 136.9106,29.00655 45.27982,12.77057"
         id="path832-6" />
    </g>
    <path
       style="fill:#5c7cfa;fill-opacity:1;stroke:#4c6ef5;stroke-width:0.116925;stroke-opacity:1"
       d="M 68.631515,64.9413 C 60.509862,55.3992 53.858729,47.560536 53.851221,47.522049 c -0.01098,-0.05624 34.22007,-29.252544 34.65224,-29.555553 0.111705,-0.07832 1.423353,1.441791 14.814329,17.168751 8.08047,9.490073 14.74485,17.321639 14.80973,17.403482 l 0.11797,0.148804 -17.38879,14.804901 C 91.292871,75.635129 83.452221,82.295813 83.433037,82.293953 83.413857,82.292053 76.753167,74.4834 68.631515,64.9413 Z"
       id="path1224" />
    <text
       xml:space="preserve"
       style="font-size:3.88056px;line-height:1.25;font-family:sans-serif;stroke-width:0.264583"
       x="94.677895"
       y="66.762833"
       id="text1228"><tspan
         sodipodi:role="line"
         id="tspan1226"
         x="94.677895"
         y="66.762833"
         style="stroke-width:0.264583">$b$</tspan></text>
    <path
       style="fill:#748ffc;fill-opacity:1;stroke:#4c6ef5;stroke-width:1.24994;stroke-opacity:1"
       d="m 379.95972,613.20602 c -0.44708,-1.36307 -63.85739,-300.87262 -63.71522,-300.94971 0.95008,-0.51522 301.48333,-63.82224 301.74359,-63.56198 0.62945,0.62945 64.27693,301.4675 63.81772,301.64272 -0.78712,0.30034 -300.30858,63.76183 -300.93902,63.76183 -0.33782,0 -0.746,-0.40179 -0.90707,-0.89286 z"
       id="path1230"
       transform="scale(0.26458333)" />
    <text
       xml:space="preserve"
       style="font-size:3.88056px;line-height:1.25;font-family:sans-serif;stroke-width:0.264583"
       x="120.11517"
       y="77.913162"
       id="text1234"><tspan
         sodipodi:role="line"
         id="tspan1232"
         x="120.11517"
         y="77.913162"
         style="stroke-width:0.264583">$c$</tspan></text>
  </g>
  <g
     inkscape:groupmode="layer"
     id="layer3"
     inkscape:label="Layer 3"
     style="display:inline">
    <g
       id="g1187"
       style="fill:#fab005;stroke:#fcc419"
       transform="translate(-5.7266379,-21.595652)">
      <path
         style="fill:#fab005;stroke:#fcc419;stroke-width:0.163168px;stroke-linecap:butt;stroke-linejoin:miter;stroke-opacity:1"
         d="m 124.14938,74.287954 45.27982,12.77057"
         id="path832" />
      <path
         style="fill:#fab005;stroke:#fcc419;stroke-width:0.163168px;stroke-linecap:butt;stroke-linejoin:miter;stroke-opacity:1"
         d="m 130.53696,51.581729 45.27982,12.77057"
         id="path832-7" />
      <path
         style="fill:#fab005;stroke:#fcc419;stroke-width:0.264583px;stroke-linecap:butt;stroke-linejoin:miter;stroke-opacity:1"
         d="m 124.14938,74.287953 6.38758,-22.706224"
         id="path1166" />
      <path
         style="fill:#fab005;stroke:#fcc419;stroke-width:0.264583px;stroke-linecap:butt;stroke-linejoin:miter;stroke-opacity:1"
         d="m 169.4292,87.058523 6.38758,-22.706224"
         id="path1166-9" />
    </g>
    <path
       style="fill:#fcc419;stroke:#adb5bd;stroke-width:0.116925"
       d="m 141.09749,58.966744 c -12.33951,-3.48075 -22.44489,-6.340472 -22.45639,-6.35494 -0.0288,-0.03622 6.26076,-22.355365 6.31497,-22.409329 0.0324,-0.03224 44.01269,12.317814 44.79981,12.580183 0.1382,0.04607 0.0475,0.385194 -2.98781,11.172603 -1.72169,6.118801 -3.15391,11.173475 -3.18272,11.23261 -0.0454,0.09324 -3.0312,-0.732756 -22.48786,-6.221127 z"
       id="path1216" />
    <path
       style="fill:#ffd43b;fill-opacity:1;stroke:#ffd43b;stroke-width:0.116925"
       d="m 162.96502,64.971047 c -1.6847,-0.420161 -8.19959,-2.244312 -29.6001,-8.287951 -5.86156,-1.655342 -11.53822,-3.258351 -12.61481,-3.562244 -1.07659,-0.303892 -1.96886,-0.563959 -1.98282,-0.577927 -0.014,-0.01397 0.12003,-0.536286 0.29777,-1.160711 0.17774,-0.624424 1.09155,-3.871489 2.03069,-7.215701 2.52331,-8.985368 3.88956,-13.792628 3.93199,-13.835057 0.0207,-0.02072 0.55951,0.113605 1.19734,0.298482 0.63783,0.184878 4.55734,1.286217 8.71005,2.447417 17.27278,4.829916 34.68878,9.741101 34.74572,9.79805 0.0696,0.0696 -0.4604,2.019459 -3.03892,11.180082 -2.35629,8.371115 -3.09317,10.956145 -3.13541,10.999296 -0.0222,0.02267 -0.26588,-0.015 -0.5415,-0.08374 z"
       id="path1218" />
    <text
       xml:space="preserve"
       style="font-size:3.88056px;line-height:1.25;font-family:sans-serif;display:inline;stroke-width:0.264583"
       x="142.84692"
       y="59.131104"
       id="text838"><tspan
         sodipodi:role="line"
         id="tspan836"
         x="142.84692"
         y="59.131104"
         style="stroke-width:0.264583">$a$</tspan></text>
  </g>
  <g
     inkscape:groupmode="layer"
     id="layer2"
     inkscape:label="Layer 2"
     style="display:inline">
    <g
       id="g1203"
       style="fill:#fa5252"
       transform="translate(-5.7266379,-21.595652)">
      <path
         style="fill:#fa5252;stroke:#fa5252;stroke-width:0.264583px;stroke-linecap:butt;stroke-linejoin:miter;stroke-opacity:1"
         d="M 146.82106,80.6809 89.150943,104.0861"
         id="path868" />
      <path
         style="fill:#fa5252;stroke:#fa5252;stroke-width:0.264583px;stroke-linecap:butt;stroke-linejoin:miter;stroke-opacity:1"
         d="M 146.82106,80.6809 123.41586,23.010795"
         id="path868-3" />
      <path
         style="fill:#fa5252;stroke:#fa5252;stroke-width:0.264583px;stroke-linecap:butt;stroke-linejoin:miter;stroke-opacity:1"
         d="M 89.150944,104.0861 65.745744,46.415995"
         id="path868-3-5" />
      <path
         style="fill:#fa5252;stroke:#fa5252;stroke-width:0.264583px;stroke-linecap:butt;stroke-linejoin:miter;stroke-opacity:1"
         d="m 123.41586,23.010795 -57.67012,23.4052"
         id="path868-6" />
    </g>
    <path
       style="fill:#fa5252;fill-opacity:0.237818;stroke:#fa5252;stroke-width:0.165357;stroke-opacity:1"
       d="M 71.897976,53.599761 C 65.189018,37.068886 60.327326,24.967768 60.376023,24.920759 60.53953,24.762922 117.533,1.6809448 117.59507,1.7474232 c 0.0918,0.098355 23.25238,57.2005668 23.21543,57.2375218 -0.0615,0.06147 -56.919914,23.129599 -57.111017,23.170596 -0.178631,0.03833 -1.186366,-2.400067 -11.801507,-28.55578 z"
       id="path1222" />
    <path
       style="display:inline;fill:#fa5252;fill-opacity:0.237818;stroke:#fa5252;stroke-width:0.165357;stroke-opacity:1"
       d="M 95.266804,111.25392 C 88.557846,94.723046 83.696155,82.621927 83.744852,82.574918 83.908359,82.417081 140.90183,59.335103 140.9639,59.401582 c 0.0918,0.09835 23.25238,57.200568 23.21543,57.237518 -0.0615,0.0615 -56.91992,23.1296 -57.11102,23.1706 -0.17863,0.0383 -1.18637,-2.40007 -11.801506,-28.55578 z"
       id="path1222-6" />
  </g>
</svg>
