<?xml version="1.0" encoding="UTF-8" standalone="no"?>
<svg
   xmlns:dc="http://purl.org/dc/elements/1.1/"
   xmlns:cc="http://creativecommons.org/ns#"
   xmlns:rdf="http://www.w3.org/1999/02/22-rdf-syntax-ns#"
   xmlns:svg="http://www.w3.org/2000/svg"
   xmlns="http://www.w3.org/2000/svg"
   xmlns:sodipodi="http://sodipodi.sourceforge.net/DTD/sodipodi-0.dtd"
   xmlns:inkscape="http://www.inkscape.org/namespaces/inkscape"
   width="1000"
   height="618"
   viewBox="0 0 264.58332 163.5125"
   version="1.1"
   id="svg8"
   inkscape:export-filename="/home/zamza/Documents/HS/Notes Template/general_graphic_template.svg.png"
   inkscape:export-xdpi="96"
   inkscape:export-ydpi="96"
   inkscape:version="1.0.1 (3bc2e813f5, 2020-09-07)"
   sodipodi:docname="zweidim_blep_bsp_kart_2.svg">
  <defs
     id="defs2" />
  <sodipodi:namedview
     id="base"
     pagecolor="#ffffff"
     bordercolor="#666666"
     borderopacity="1.0"
     inkscape:pageopacity="0.0"
     inkscape:pageshadow="2"
     inkscape:zoom="1.4"
     inkscape:cx="388.20232"
     inkscape:cy="159.10861"
     inkscape:document-units="mm"
     inkscape:current-layer="layer1"
     inkscape:document-rotation="0"
     showgrid="false"
     units="px"
     width="1000px"
     inkscape:window-width="1710"
     inkscape:window-height="1000"
     inkscape:window-x="115"
     inkscape:window-y="92"
     inkscape:window-maximized="0" />
  <metadata
     id="metadata5">
    <rdf:RDF>
      <cc:Work
         rdf:about="">
        <dc:format>image/svg+xml</dc:format>
        <dc:type
           rdf:resource="http://purl.org/dc/dcmitype/StillImage" />
        <dc:title />
      </cc:Work>
    </rdf:RDF>
  </metadata>
  <g
     inkscape:label="Layer 1"
     inkscape:groupmode="layer"
     id="layer1">
    <circle
       style="fill:#ffe3e3;stroke:#868e96;stroke-width:0.308999;stroke-opacity:1"
       id="path867"
       cx="117.79069"
       cy="81.088539"
       r="18.628147" />
    <circle
       style="fill:none;stroke:#868e96;stroke-width:0.285;stroke-opacity:1;stroke-miterlimit:4;stroke-dasharray:none"
       id="path867-6"
       cx="118.12435"
       cy="82.082077"
       r="11.136951" />
    <circle
       style="fill:none;stroke:#868e96;stroke-width:0.252364;stroke-opacity:1"
       id="path867-6-7"
       cx="118.21125"
       cy="82.080803"
       r="15.213877" />
    <circle
       style="fill:none;stroke:#868e96;stroke-width:0.224;stroke-opacity:1;stroke-miterlimit:4;stroke-dasharray:none"
       id="path867-6-5"
       cx="118.18883"
       cy="82.310265"
       r="7.4707332" />
    <circle
       style="fill:none;stroke:#868e96;stroke-width:0.17;stroke-opacity:1;stroke-miterlimit:4;stroke-dasharray:none"
       id="path867-6-5-3"
       cx="118.17171"
       cy="82.455521"
       r="4.2036605" />
    <path
       style="fill:none;stroke:#868e96;stroke-width:0.264583px;stroke-linecap:butt;stroke-linejoin:miter;stroke-opacity:1"
       d="m 118.32939,82.335308 h 18.08936"
       id="path929" />
    <path
       style="fill:none;stroke:#868e96;stroke-width:0.264583px;stroke-linecap:butt;stroke-linejoin:miter;stroke-opacity:1"
       d="m 131.93351,68.731182 -13.60412,13.604126 0,-19.379298"
       id="path937" />
    <path
       style="fill:none;stroke:#868e96;stroke-width:0.264583px;stroke-linecap:butt;stroke-linejoin:miter;stroke-opacity:1"
       d="m 108.60464,65.491547 9.72475,16.843761 -19.097799,-5.11724"
       id="path939" />
    <path
       style="fill:none;stroke:#868e96;stroke-width:0.264583px;stroke-linecap:butt;stroke-linejoin:miter;stroke-opacity:1"
       d="M 118.32939,82.335308 H 99.824081"
       id="path941" />
    <path
       style="fill:none;stroke:#868e96;stroke-width:0.264583px;stroke-linecap:butt;stroke-linejoin:miter;stroke-opacity:1"
       d="M 118.32939,82.335308 105.56671,95.09798"
       id="path943" />
    <path
       style="fill:none;stroke:#868e96;stroke-width:0.264583px;stroke-linecap:butt;stroke-linejoin:miter;stroke-opacity:1"
       d="m 130.55315,94.559066 -12.22376,-12.223758 0,16.999851"
       id="path945" />
    <path
       style="fill:none;stroke:#868e96;stroke-width:0.264583px;stroke-linecap:butt;stroke-linejoin:miter;stroke-opacity:1"
       d="m 125.55583,98.13896 -7.22644,-15.803652 -6.83224,16.093775"
       id="path947" />
    <path
       style="fill:none;stroke:#868e96;stroke-width:0.264583px;stroke-linecap:butt;stroke-linejoin:miter;stroke-opacity:1"
       d="m 118.32939,82.335308 -17.07775,7.400139"
       id="path949" />
    <path
       style="fill:none;stroke:#868e96;stroke-width:0.264583px;stroke-linecap:butt;stroke-linejoin:miter;stroke-opacity:1"
       d="m 102.73664,70.332353 15.59275,12.002955 7.63788,-17.336141"
       id="path951" />
    <path
       style="fill:none;stroke:#868e96;stroke-width:0.264583px;stroke-linecap:butt;stroke-linejoin:miter;stroke-opacity:1"
       d="m 135.51926,75.731544 -17.18987,6.603764 15.95326,7.136848"
       id="path953" />
    <text
       xml:space="preserve"
       style="font-size:3.88056px;line-height:1.25;font-family:sans-serif;fill:#e599f7;stroke-width:0.264583"
       x="122.59521"
       y="79.505707"
       id="text957"><tspan
         sodipodi:role="line"
         id="tspan955"
         x="122.59521"
         y="79.505707"
         style="fill:#e599f7;stroke-width:0.264583">$d\phi$</tspan></text>
    <text
       xml:space="preserve"
       style="font-size:3.88056px;line-height:1.25;font-family:sans-serif;fill:#e599f7;stroke-width:0.264583"
       x="128.24013"
       y="81.193741"
       id="text961"><tspan
         sodipodi:role="line"
         id="tspan959"
         x="128.24013"
         y="81.193741"
         style="fill:#e599f7;stroke-width:0.264583">$dr$</tspan></text>
    <path
       style="fill:#e599f7;stroke:#868e96;stroke-width:0.136013;stroke-miterlimit:4;stroke-dasharray:none;stroke-opacity:1"
       d="m 486.51434,295.35694 c -0.0339,-0.0568 -0.32767,-0.75675 -0.65275,-1.5554 -1.55298,-3.81534 -4.2011,-8.11307 -6.99305,-11.34929 -0.4974,-0.57654 -0.90436,-1.08592 -0.90436,-1.13195 0,-0.046 2.29407,-2.37724 5.09792,-5.18046 l 5.09792,-5.09675 1.42154,1.62494 c 4.01851,4.59348 7.26998,9.77897 9.64123,15.37595 0.4679,1.1044 0.82396,2.07772 0.79126,2.16294 -0.0327,0.0852 -0.31956,0.24356 -0.63746,0.35188 l -0.57801,0.19695 v -0.49741 -0.49741 h -0.63135 -0.63134 v 0.7441 c 0,0.47829 -0.0564,0.76609 -0.15784,0.80564 -3.42921,1.33688 -3.92517,1.50086 -4.31706,1.42735 -0.5686,-0.10667 -1.61423,0.137 -2.15101,0.50127 l -0.44516,0.3021 v -0.31187 c 0,-0.29384 -0.0401,-0.31187 -0.69448,-0.31187 h -0.69448 v 0.79905 0.79905 l -1.10485,0.41813 c -0.60767,0.22998 -1.17014,0.44249 -1.24992,0.47226 -0.0798,0.0298 -0.17283,0.008 -0.20675,-0.0492 z"
       id="path963"
       transform="scale(0.26458333)" />
  </g>
</svg>
