<?xml version="1.0" encoding="UTF-8" standalone="no"?>
<svg
   xmlns:dc="http://purl.org/dc/elements/1.1/"
   xmlns:cc="http://creativecommons.org/ns#"
   xmlns:rdf="http://www.w3.org/1999/02/22-rdf-syntax-ns#"
   xmlns:svg="http://www.w3.org/2000/svg"
   xmlns="http://www.w3.org/2000/svg"
   xmlns:sodipodi="http://sodipodi.sourceforge.net/DTD/sodipodi-0.dtd"
   xmlns:inkscape="http://www.inkscape.org/namespaces/inkscape"
   width="1000"
   height="618"
   viewBox="0 0 264.58332 163.5125"
   version="1.1"
   id="svg8"
   inkscape:export-filename="/home/zamza/Documents/HS/Notes Template/general_graphic_template.svg.png"
   inkscape:export-xdpi="96"
   inkscape:export-ydpi="96"
   inkscape:version="1.0.1 (3bc2e813f5, 2020-09-07)"
   sodipodi:docname="zweidim.svg">
  <defs
     id="defs2">
    <rect
       x="172.76492"
       y="58.638072"
       width="17.667553"
       height="10.523664"
       id="rect937" />
  </defs>
  <sodipodi:namedview
     id="base"
     pagecolor="#ffffff"
     bordercolor="#666666"
     borderopacity="1.0"
     inkscape:pageopacity="0.0"
     inkscape:pageshadow="2"
     inkscape:zoom="5.6"
     inkscape:cx="509.02275"
     inkscape:cy="262.03995"
     inkscape:document-units="mm"
     inkscape:current-layer="layer2"
     inkscape:document-rotation="0"
     showgrid="false"
     units="px"
     width="1000px"
     inkscape:window-width="1802"
     inkscape:window-height="982"
     inkscape:window-x="82"
     inkscape:window-y="43"
     inkscape:window-maximized="0" />
  <metadata
     id="metadata5">
    <rdf:RDF>
      <cc:Work
         rdf:about="">
        <dc:format>image/svg+xml</dc:format>
        <dc:type
           rdf:resource="http://purl.org/dc/dcmitype/StillImage" />
        <dc:title />
      </cc:Work>
    </rdf:RDF>
  </metadata>
  <g
     inkscape:groupmode="layer"
     id="layer2"
     inkscape:label="Layer 2"
     style="display:inline">
    <path
       style="fill:none;stroke:#000000;stroke-width:0.264583px;stroke-linecap:butt;stroke-linejoin:miter;stroke-opacity:1"
       d="m 133.80523,78.79586 c 0.52908,-4.524777 4.69263,-3.259526 8.08775,-3.674496 2.98103,-0.364355 5.04595,-3.23333 8.30181,-3.726688 3.17558,-0.481189 13.86113,5.014132 9.79427,9.437719 -3.9083,4.251122 -12.40355,2.715035 -17.28629,2.461792 -4.99643,-0.259141 -9.82044,4.584488 -8.89754,-4.498327 z"
       id="path869" />
    <path
       style="fill:#748ffc;fill-opacity:0.7201;stroke:#748ffc;stroke-width:0.506187"
       d="m 511.34794,317.92232 c -4.12376,-1.3076 -5.64845,-5.32786 -5.39063,-14.2139 0.19767,-6.81345 0.87309,-10.1374 2.59968,-12.7939 2.83193,-4.35717 7.56609,-5.9522 17.68296,-5.95772 4.07631,-0.002 9.25832,-0.29347 11.18359,-0.62856 3.58047,-0.62316 7.08427,-2.16137 12.31726,-5.40742 7.92773,-4.91761 9.51502,-5.80277 12.5,-6.97067 3.9163,-1.53228 6.75212,-1.89683 10.17857,-1.30846 11.70541,2.01001 26.61463,10.79501 32.24914,19.00226 4.31732,6.28861 3.72671,11.64053 -1.85898,16.84572 -7.28174,6.78569 -18.92327,9.83425 -36.19373,9.47801 -5.41714,-0.11174 -8.95103,-0.32494 -18.39286,-1.10962 -6.94462,-0.57714 -11.63037,-0.72522 -14.19643,-0.44863 -2.4748,0.26676 -6.02315,0.9705 -11.16071,2.2135 -2.20982,0.53465 -4.77532,1.10207 -5.70111,1.26093 -1.98117,0.33997 -4.80697,0.35865 -5.81675,0.0385 z"
       id="path871"
       transform="scale(0.26458333)" />
    <path
       style="fill:#91a7ff;fill-opacity:0.7201;stroke:#91a7ff;stroke-width:0.506187"
       d="m 511.7071,317.66075 c -1.84564,-0.44768 -3.58608,-2.06763 -4.34106,-4.04053 -0.8375,-2.18853 -1.00039,-3.60072 -0.99504,-8.62692 0.01,-8.94039 0.94039,-12.6395 3.93875,-15.65164 0.97247,-0.97695 1.6229,-1.4458 2.77065,-1.99718 2.92331,-1.40436 5.12719,-1.76052 12.30342,-1.98829 12.41707,-0.39412 14.30304,-0.71895 19.59626,-3.37522 1.61289,-0.80938 3.31997,-1.8131 10.22517,-6.01211 4.75121,-2.88918 8.86377,-4.61601 12.12612,-5.09166 8.46216,-1.23377 25.88703,6.76597 34.45637,15.81889 4.1683,4.40352 5.97108,8.78804 5.18847,12.61878 -0.28675,1.4036 -1.45314,3.6328 -2.66449,5.09236 -4.39753,5.29862 -12.11538,8.92143 -22.15312,10.39883 -4.30476,0.63359 -7.05162,0.79504 -13.38192,0.78651 -6.48803,-0.009 -8.17691,-0.0942 -19.375,-0.98055 -4.89391,-0.38736 -8.26491,-0.55817 -11.33929,-0.57457 -4.85,-0.0259 -5.49884,0.0566 -11.96428,1.52052 -9.34651,2.11627 -9.33311,2.11372 -11.51786,2.19763 -1.17857,0.0453 -2.47149,0.003 -2.87315,-0.0949 z"
       id="path875"
       transform="scale(0.26458333)" />
    <path
       style="fill:#dee2e6;stroke:#dee2e6;stroke-width:0.264583px;stroke-linecap:butt;stroke-linejoin:miter;stroke-opacity:1"
       d="M 135.29414,84.116957 V 73.142609"
       id="path877" />
    <circle
       id="path879"
       style="fill:#dee2e6;stroke:#dee2e6;stroke-width:0.264583"
       cx="135.29414"
       cy="73.142609"
       r="0.39687499" />
    <path
       style="fill:#dee2e6;stroke:#dee2e6;stroke-width:0.264583px;stroke-linecap:butt;stroke-linejoin:miter;stroke-opacity:1"
       d="m 141.88684,75.135086 v -5.609"
       id="path881" />
    <circle
       id="path883"
       style="fill:#dee2e6;stroke:#dee2e6;stroke-width:0.264583"
       cx="141.88683"
       cy="69.526085"
       r="0.39687499" />
    <path
       style="fill:#dee2e6;stroke:#dee2e6;stroke-width:0.264583px;stroke-linecap:butt;stroke-linejoin:miter;stroke-opacity:1"
       d="M 151.01447,71.202128 V 66.960733"
       id="path885" />
    <circle
       id="path887"
       style="fill:#dee2e6;stroke:#dee2e6;stroke-width:0.264583"
       cx="151.01447"
       cy="66.960732"
       r="0.39687499" />
    <path
       style="fill:#dee2e6;stroke:#dee2e6;stroke-width:0.264583px;stroke-linecap:butt;stroke-linejoin:miter;stroke-opacity:1"
       d="m 158.59965,74.850031 v -8.76908"
       id="path891" />
    <circle
       id="path893"
       style="fill:#dee2e6;stroke:#dee2e6;stroke-width:0.264583"
       cx="158.59966"
       cy="66.080948"
       r="0.39687499" />
    <path
       style="fill:#dee2e6;stroke:#dee2e6;stroke-width:0.264583px;stroke-linecap:butt;stroke-linejoin:miter;stroke-opacity:1"
       d="m 160.83244,79.301439 v -8.84949"
       id="path895" />
    <circle
       id="path897"
       style="fill:#dee2e6;stroke:#dee2e6;stroke-width:0.264583"
       cx="160.83243"
       cy="70.45195"
       r="0.39687499" />
    <path
       style="fill:#dee2e6;stroke:#dee2e6;stroke-width:0.264583px;stroke-linecap:butt;stroke-linejoin:miter;stroke-opacity:1"
       d="M 147.83876,83.770051 V 77.094108"
       id="path907" />
    <circle
       id="path909"
       style="fill:#dee2e6;stroke:#dee2e6;stroke-width:0.264583"
       cx="147.83876"
       cy="77.094109"
       r="0.39687499" />
    <path
       style="fill:#dee2e6;stroke:#dee2e6;stroke-width:0.264583px;stroke-linecap:butt;stroke-linejoin:miter;stroke-opacity:1"
       d="M 155.9586,83.353203 V 74.816834"
       id="path911" />
    <circle
       id="path913"
       style="fill:#dee2e6;stroke:#dee2e6;stroke-width:0.264583"
       cx="155.9586"
       cy="74.816833"
       r="0.39687499" />
    <path
       style="fill:#dee2e6;stroke:#dee2e6;stroke-width:0.264583px;stroke-linecap:butt;stroke-linejoin:miter;stroke-opacity:1"
       d="M 141.32033,83.253156 V 76.445622"
       id="path915" />
    <circle
       id="path917"
       style="fill:#dee2e6;stroke:#dee2e6;stroke-width:0.264583"
       cx="141.32033"
       cy="76.445625"
       r="0.39687499" />
    <path
       style="fill:#dee2e6;stroke:#dee2e6;stroke-width:0.264583px;stroke-linecap:butt;stroke-linejoin:miter;stroke-opacity:1"
       d="M 136.32333,75.522735 V 71.233741"
       id="path923" />
    <circle
       id="path925"
       style="fill:#dee2e6;stroke:#dee2e6;stroke-width:0.264583"
       cx="136.32333"
       cy="71.233742"
       r="0.39687499" />
    <text
       xml:space="preserve"
       style="font-size:3.88056px;line-height:1.25;font-family:sans-serif;stroke-width:0.264583"
       x="173.90335"
       y="63.470779"
       id="text933"><tspan
         sodipodi:role="line"
         id="tspan931"
         x="173.90335"
         y="63.470779"
         style="stroke-width:0.264583">$f(x,y)$</tspan></text>
    <text
       xml:space="preserve"
       id="text935"
       style="font-size:3.88056px;line-height:1.25;font-family:sans-serif;white-space:pre;shape-inside:url(#rect937);" />
    <text
       xml:space="preserve"
       style="font-size:3.88056px;line-height:1.25;font-family:sans-serif;fill:#3b5bdb;stroke-width:0.264583"
       x="136.82872"
       y="82.355034"
       id="text943"><tspan
         sodipodi:role="line"
         id="tspan941"
         x="136.82872"
         y="82.355034"
         style="fill:#3b5bdb;stroke-width:0.264583">M</tspan></text>
    <path
       style="fill:#adb5bd;fill-opacity:0.311252;stroke:#91a7ff;stroke-width:0.506187"
       d="m 584.78112,303.02438 c -4.1113,-0.47938 -7.99827,-1.00475 -12.58928,-1.70161 -4.00348,-0.60768 -11.9506,-1.96687 -12.54465,-2.14551 -0.28038,-0.0843 -0.3125,-0.38247 -0.3125,-2.90086 v -2.8069 l 0.74675,-0.57393 c 0.48375,-0.37179 0.94855,-0.57392 1.31974,-0.57392 0.31514,0 1.36526,-0.20725 2.33361,-0.46056 3.55595,-0.93019 4.59767,-1.16874 8.93873,-2.04694 8.08421,-1.63544 11.55867,-2.76793 14.95506,-4.87457 0.38753,-0.24037 0.80941,-0.39682 0.9375,-0.34767 0.18738,0.0719 0.2329,1.91783 0.2329,9.44527 v 9.35589 l -0.58036,-0.0178 c -0.3192,-0.01 -1.86607,-0.16769 -3.4375,-0.35092 z"
       id="path970"
       transform="scale(0.26458333)" />
    <path
       style="fill:#dee2e6;stroke:#dee2e6;stroke-width:0.264583px;stroke-linecap:butt;stroke-linejoin:miter;stroke-opacity:1"
       d="m 133.91341,78.242551 v -6.80312"
       id="path870" />
    <circle
       id="path872"
       style="fill:#dee2e6;stroke:#dee2e6;stroke-width:0.264583"
       cx="133.91341"
       cy="71.43943"
       r="0.39687499" />
  </g>
  <g
     inkscape:label="Layer 1"
     inkscape:groupmode="layer"
     id="layer1">
    <path
       style="fill:none;stroke:#000000;stroke-width:0.264583px;stroke-linecap:butt;stroke-linejoin:miter;stroke-opacity:1"
       d="M 87.634796,54.872305 V 99.28562"
       id="path830" />
    <path
       style="fill:none;stroke:#000000;stroke-width:0.264583px;stroke-linecap:butt;stroke-linejoin:miter;stroke-opacity:1"
       d="M 80.829787,93.404197 H 170.97006"
       id="path832" />
    <path
       style="fill:none;stroke:#000000;stroke-width:0.264583px;stroke-linecap:butt;stroke-linejoin:miter;stroke-opacity:1"
       d="M 87.790884,93.431465 132.96995,67.347319"
       id="path834" />
    <path
       style="fill:none;stroke:#000000;stroke-width:0.264583px;stroke-linecap:butt;stroke-linejoin:miter;stroke-opacity:1"
       d="m 92.945322,79.441288 c 2.31608,-2.154674 4.74103,-3.995853 7.826268,-4.842578 29.23867,-8.024421 54.57751,18.350055 87.60408,-1.300118"
       id="path838" />
    <path
       style="fill:none;stroke:#000000;stroke-width:0.264583px;stroke-linecap:butt;stroke-linejoin:miter;stroke-opacity:1"
       d="m 186.37044,53.747225 c -10.0905,-4.341113 -20.81653,2.288673 -31.11688,-0.128764 -3.20812,-0.75293 -5.23699,-3.055541 -8.10694,-4.315309 -6.99273,-3.069469 -15.34372,-2.004608 -22.50536,-0.381297"
       id="path842" />
    <path
       style="fill:none;stroke:#000000;stroke-width:0.264583px;stroke-linecap:butt;stroke-linejoin:miter;stroke-opacity:1"
       d="M 124.64126,48.921855 C 128.11414,67.358038 95.810862,64.856243 92.945322,79.441286"
       id="path848" />
    <path
       style="fill:none;stroke:#000000;stroke-width:0.264583px;stroke-linecap:butt;stroke-linejoin:miter;stroke-opacity:1"
       d="m 186.37044,53.747225 c 3.80721,1.427578 8.61912,2.173074 12.25133,0.116282"
       id="path858" />
    <path
       style="fill:none;stroke:#000000;stroke-width:0.264583px;stroke-linecap:butt;stroke-linejoin:miter;stroke-opacity:1"
       d="m 198.62177,53.863507 c -0.14044,1.271151 -0.44989,2.564802 -1.02863,3.722272 -1.53906,3.078128 -4.79038,5.243555 -6.52023,8.279858 -1.2357,2.168953 -1.49414,6.429991 -2.69724,7.432955"
       id="path860" />
    <path
       style="fill:none;stroke:#fcc2d7;stroke-width:0.274167px;stroke-linecap:butt;stroke-linejoin:miter;stroke-opacity:1"
       d="m 160.82704,70.452965 c -1.07485,-8.530049 -11.23266,-2.36895 -16.62031,-1.461225 -1.70007,0.286432 -4.81704,0.13911 -7.59238,1.63114 -1.25198,0.673067 -2.69807,0.195938 -3.14865,1.192198 -1.68164,3.718325 11.72559,6.146004 14.8047,5.251853 1.78004,-0.516912 3.69111,-0.624403 5.4869,-1.24979 3.14481,-1.095172 4.54399,-4.095838 7.06974,-5.364176 z"
       id="path929"
       sodipodi:nodetypes="csscssc" />
    <path
       style="fill:#faa2c1;fill-opacity:0.311252;stroke:#dee2e6;stroke-width:0.0983177"
       d="m 145.79567,77.098606 c -2.5269,-0.129313 -5.13193,-0.582394 -7.50779,-1.305783 -3.28171,-0.999203 -5.08341,-2.32263 -4.84219,-3.556811 0.20556,-1.051777 0.96921,-0.953834 2.91638,-1.408785 1.17346,-0.274177 2.66716,-1.308715 5.36462,-1.476257 0.76248,-0.04736 1.59559,-0.108177 1.85134,-0.135156 1.23747,-0.130535 2.17727,-0.38743 6.07279,-1.660011 2.45803,-0.802992 3.91021,-1.170963 5.32702,-1.349843 0.62199,-0.07853 1.66056,-0.07725 2.1425,0.0026 1.77574,0.29435 2.84025,1.297785 3.3479,3.155826 0.0965,0.353627 0.21198,0.971217 0.18596,0.995374 -0.009,0.0083 -0.17882,0.115522 -0.3774,0.238193 -0.58327,0.360304 -1.06157,0.75487 -1.91851,1.582626 -1.26231,1.219338 -2.21873,2.097979 -2.55226,2.344706 -0.75935,0.561747 -1.57849,0.986366 -2.41258,1.250629 -0.60448,0.191521 -1.26544,0.341373 -2.68263,0.6082 -1.24828,0.235027 -1.83857,0.361693 -2.43057,0.521557 -0.16834,0.04546 -0.46001,0.104267 -0.64815,0.13068 -0.34522,0.04847 -1.40409,0.08434 -1.83643,0.06222 z"
       id="path958"
       sodipodi:nodetypes="cssssssscccssssssscc" />
  </g>
</svg>
