<?xml version="1.0" encoding="UTF-8" standalone="no"?>
<svg
   xmlns:dc="http://purl.org/dc/elements/1.1/"
   xmlns:cc="http://creativecommons.org/ns#"
   xmlns:rdf="http://www.w3.org/1999/02/22-rdf-syntax-ns#"
   xmlns:svg="http://www.w3.org/2000/svg"
   xmlns="http://www.w3.org/2000/svg"
   xmlns:sodipodi="http://sodipodi.sourceforge.net/DTD/sodipodi-0.dtd"
   xmlns:inkscape="http://www.inkscape.org/namespaces/inkscape"
   width="1000"
   height="618"
   viewBox="0 0 264.58332 163.5125"
   version="1.1"
   id="svg8"
   inkscape:export-filename="/home/zamza/Documents/HS/Notes Template/general_graphic_template.svg.png"
   inkscape:export-xdpi="96"
   inkscape:export-ydpi="96"
   inkscape:version="1.0.1 (3bc2e813f5, 2020-09-07)"
   sodipodi:docname="ptoli.svg">
  <defs
     id="defs2" />
  <sodipodi:namedview
     id="base"
     pagecolor="#ffffff"
     bordercolor="#666666"
     borderopacity="1.0"
     inkscape:pageopacity="0.0"
     inkscape:pageshadow="2"
     inkscape:zoom="3.959798"
     inkscape:cx="475.31282"
     inkscape:cy="265.95042"
     inkscape:document-units="mm"
     inkscape:current-layer="layer1"
     inkscape:document-rotation="0"
     showgrid="false"
     units="px"
     width="1000px"
     inkscape:window-width="1572"
     inkscape:window-height="1079"
     inkscape:window-x="138"
     inkscape:window-y="77"
     inkscape:window-maximized="0" />
  <metadata
     id="metadata5">
    <rdf:RDF>
      <cc:Work
         rdf:about="">
        <dc:format>image/svg+xml</dc:format>
        <dc:type
           rdf:resource="http://purl.org/dc/dcmitype/StillImage" />
        <dc:title />
      </cc:Work>
    </rdf:RDF>
  </metadata>
  <g
     inkscape:label="Layer 1"
     inkscape:groupmode="layer"
     id="layer1">
    <circle
       style="fill:#4c6ef5;stroke:#868e96;stroke-width:0.285001"
       id="path830"
       cx="124.31674"
       cy="75.950485"
       r="3.942456" />
    <text
       xml:space="preserve"
       style="font-size:3.88056px;line-height:1.25;font-family:sans-serif;stroke-width:0.264583"
       x="120.63912"
       y="83.894379"
       id="text834"><tspan
         sodipodi:role="line"
         id="tspan832"
         x="120.63912"
         y="83.894379"
         style="stroke-width:0.264583">Erde</tspan></text>
    <circle
       style="fill:none;stroke:#868e96;stroke-width:0.461073"
       id="path836-3"
       cx="124.23631"
       cy="76.354095"
       r="19.208485" />
    <path
       style="fill:none;stroke:#000000;stroke-width:0.264583px;stroke-linecap:butt;stroke-linejoin:miter;stroke-opacity:1"
       d="m 142.17355,64.616856 c -1.53507,0.779518 -4.17236,1.038132 -5.55868,-0.207315 -0.73126,-0.656955 -1.20609,-5.217128 0.21525,-4.513445 1.25548,0.621573 -1.94413,2.468359 -3.04102,1.804448 -2.0227,-1.224261 -1.09507,-2.525056 -2.12266,-4.148042 -0.33272,-0.525497 -1.10449,0.591061 -1.7012,0.766514 -1.72881,0.508336 -3.95238,0.790818 -5.75774,0.456729 -2.4402,-0.451567 -0.5784,-3.416948 0.93599,-2.76044 3.14732,1.364398 -7.88532,4.725974 -6.96923,1.049594 0.39914,-1.601775 4.45567,0.559887 -1.06433,3.408838 -0.514,0.26528 -6.32942,1.360107 -4.65736,0.02246 2.17832,-1.74266 2.57885,3.861503 -5.21018,4.762677 -3.05123,0.35302 3.69693,-1.715405 2.53609,2.822834 -0.58855,2.300936 -4.57346,1.525286 -5.9394,2.890316 -0.76578,0.765265 2.8283,-0.647737 3.22799,0.358389 1.48134,3.728887 -3.80999,5.466847 -3.71927,5.299673 0.8688,-1.600896 3.33479,-1.494748 4.39005,-0.126937 1.0609,1.37513 -1.05522,5.117706 -2.50709,4.429702 -0.41956,-0.198824 1.80032,-1.122603 2.56534,-0.701807 3.03822,1.671161 -0.76276,7.567271 -1.61926,6.67503 -0.32633,-0.339948 3.81288,-1.146792 4.76178,0.148026 0.99523,1.358016 0.62786,1.892829 0.10809,3.308345 -1.27003,3.458715 -1.54874,0.692647 0.47439,0.802309 3.96645,0.215003 7.10345,5.245431 4.05188,3.759102 -1.97247,-0.960734 3.82406,-2.539095 5.24026,-2.106689 2.87609,0.878152 5.016,5.593432 2.40389,3.505711 -4.46454,-3.568274 12.3896,-3.321124 10.71444,0.866775 -0.50585,1.264634 -3.56871,-0.655357 -2.25781,-2.629385 0.59436,-0.895024 4.17754,-3.155606 5.04071,-1.860859 0.88176,1.322644 -1.39599,2.204431 -1.88611,1.214503 -1.7554,-3.545525 3.38213,-7.411211 6.50191,-5.362175 1.14005,0.748768 -0.39555,3.238558 -1.7826,1.974985 -2.70095,-2.460511 1.3887,-7.949118 4.6825,-7.128013 1.17502,0.292921 -3.77951,3.235418 -3.7819,-0.315912 -0.002,-3.23048 4.85848,-7.347315 5.0991,-6.104033 0.39711,2.051871 -4.12811,2.160654 -4.34017,0.292405 -0.19489,-1.716932 3.02364,-7.699288 5.23788,-6.831103 0.61287,0.240303 -0.45186,1.735738 -0.86234,1.801326 -6.85794,1.095793 -4.6832,-5.717744 -2.47033,-8.346252"
       id="path835" />
  </g>
</svg>
