<?xml version="1.0" encoding="UTF-8" standalone="no"?>
<svg
   xmlns:dc="http://purl.org/dc/elements/1.1/"
   xmlns:cc="http://creativecommons.org/ns#"
   xmlns:rdf="http://www.w3.org/1999/02/22-rdf-syntax-ns#"
   xmlns:svg="http://www.w3.org/2000/svg"
   xmlns="http://www.w3.org/2000/svg"
   xmlns:sodipodi="http://sodipodi.sourceforge.net/DTD/sodipodi-0.dtd"
   xmlns:inkscape="http://www.inkscape.org/namespaces/inkscape"
   width="1000"
   height="618"
   viewBox="0 0 264.58332 163.5125"
   version="1.1"
   id="svg8"
   inkscape:export-filename="/home/zamza/Documents/HS/Notes Template/general_graphic_template.svg.png"
   inkscape:export-xdpi="96"
   inkscape:export-ydpi="96"
   inkscape:version="1.0.1 (3bc2e813f5, 2020-09-07)"
   sodipodi:docname="prozessverwaltung.svg">
  <defs
     id="defs2">
    <marker
       style="overflow:visible"
       id="Arrow2Mstart"
       refX="0.0"
       refY="0.0"
       orient="auto"
       inkscape:stockid="Arrow2Mstart"
       inkscape:isstock="true">
      <path
         transform="scale(0.6) translate(0,0)"
         d="M 8.7185878,4.0337352 L -2.2072895,0.016013256 L 8.7185884,-4.0017078 C 6.9730900,-1.6296469 6.9831476,1.6157441 8.7185878,4.0337352 z "
         style="fill-rule:evenodd;stroke-width:0.625;stroke-linejoin:round;stroke:#212529;stroke-opacity:1;fill:#212529;fill-opacity:1"
         id="path1097" />
    </marker>
    <marker
       style="overflow:visible"
       id="Arrow1Lstart"
       refX="0.0"
       refY="0.0"
       orient="auto"
       inkscape:stockid="Arrow1Lstart"
       inkscape:isstock="true">
      <path
         transform="scale(0.8) translate(12.5,0)"
         style="fill-rule:evenodd;stroke:#000000;stroke-width:1pt;stroke-opacity:1;fill:#000000;fill-opacity:1"
         d="M 0.0,0.0 L 5.0,-5.0 L -12.5,0.0 L 5.0,5.0 L 0.0,0.0 z "
         id="path1073" />
    </marker>
    <marker
       style="overflow:visible"
       id="Arrow2Mstart-3"
       refX="0"
       refY="0"
       orient="auto"
       inkscape:stockid="Arrow2Mstart"
       inkscape:isstock="true">
      <path
         transform="scale(0.6)"
         d="M 8.7185878,4.0337352 -2.2072895,0.01601326 8.7185884,-4.0017078 c -1.7454984,2.3720609 -1.7354408,5.6174519 -6e-7,8.035443 z"
         style="fill:#212529;fill-opacity:1;fill-rule:evenodd;stroke:#212529;stroke-width:0.625;stroke-linejoin:round;stroke-opacity:1"
         id="path1097-6" />
    </marker>
    <marker
       style="overflow:visible"
       id="Arrow2Mstart-3-6"
       refX="0"
       refY="0"
       orient="auto"
       inkscape:stockid="Arrow2Mstart"
       inkscape:isstock="true">
      <path
         transform="scale(0.6)"
         d="M 8.7185878,4.0337352 -2.2072895,0.01601326 8.7185884,-4.0017078 c -1.7454984,2.3720609 -1.7354408,5.6174519 -6e-7,8.035443 z"
         style="fill:#212529;fill-opacity:1;fill-rule:evenodd;stroke:#212529;stroke-width:0.625;stroke-linejoin:round;stroke-opacity:1"
         id="path1097-6-5" />
    </marker>
    <marker
       style="overflow:visible"
       id="Arrow2Mstart-3-7"
       refX="0"
       refY="0"
       orient="auto"
       inkscape:stockid="Arrow2Mstart"
       inkscape:isstock="true">
      <path
         transform="scale(0.6)"
         d="M 8.7185878,4.0337352 -2.2072895,0.01601326 8.7185884,-4.0017078 c -1.7454984,2.3720609 -1.7354408,5.6174519 -6e-7,8.035443 z"
         style="fill:#212529;fill-opacity:1;fill-rule:evenodd;stroke:#212529;stroke-width:0.625;stroke-linejoin:round;stroke-opacity:1"
         id="path1097-6-4" />
    </marker>
  </defs>
  <sodipodi:namedview
     id="base"
     pagecolor="#ffffff"
     bordercolor="#666666"
     borderopacity="1.0"
     inkscape:pageopacity="0.0"
     inkscape:pageshadow="2"
     inkscape:zoom="5.6"
     inkscape:cx="673.77689"
     inkscape:cy="230.8549"
     inkscape:document-units="mm"
     inkscape:current-layer="layer1"
     inkscape:document-rotation="0"
     showgrid="true"
     units="px"
     width="1000px"
     inkscape:window-width="1564"
     inkscape:window-height="1107"
     inkscape:window-x="239"
     inkscape:window-y="73"
     inkscape:window-maximized="0">
    <inkscape:grid
       type="xygrid"
       id="grid1067" />
  </sodipodi:namedview>
  <metadata
     id="metadata5">
    <rdf:RDF>
      <cc:Work
         rdf:about="">
        <dc:format>image/svg+xml</dc:format>
        <dc:type
           rdf:resource="http://purl.org/dc/dcmitype/StillImage" />
        <dc:title />
      </cc:Work>
    </rdf:RDF>
  </metadata>
  <g
     inkscape:label="Layer 1"
     inkscape:groupmode="layer"
     id="layer1">
    <path
       id="rect830"
       style="fill:#f1f3f5;stroke:#343a40;stroke-width:0.311679"
       d="m 125.67709,30.049826 h 48.75979 v 83.721004 h -48.75979 z" />
    <text
       xml:space="preserve"
       style="font-size:3.88056px;line-height:1.25;font-family:sans-serif;stroke-width:0.264583"
       x="137.02946"
       y="28.652056"
       id="text834"><tspan
         sodipodi:role="line"
         id="tspan832"
         x="137.02946"
         y="28.652056"
         style="stroke-width:0.264583">Arbeitsspeicher</tspan></text>
    <rect
       style="fill:#ffe066;stroke:#343a40;stroke-width:0.305677"
       id="rect836"
       width="48.815414"
       height="28.165546"
       x="125.66821"
       y="30.040949" />
    <text
       xml:space="preserve"
       style="font-size:3.88056px;line-height:1.25;font-family:sans-serif;fill:#f8f9fa;stroke-width:0.264583"
       x="137.11755"
       y="34.157547"
       id="text846"><tspan
         sodipodi:role="line"
         id="tspan844"
         x="137.11755"
         y="34.157547"
         style="fill:#f8f9fa;stroke-width:0.264583">Betriebssystem</tspan></text>
    <rect
       style="fill:#fff3bf;stroke:#ffec99;stroke-width:0.308215"
       id="rect848"
       width="18.815056"
       height="20.706011"
       x="129.01819"
       y="36.3526" />
    <text
       xml:space="preserve"
       style="font-size:3.88056px;line-height:1.25;font-family:sans-serif;fill:#212529;stroke-width:0.264583"
       x="129.35052"
       y="39.897503"
       id="text885"><tspan
         sodipodi:role="line"
         id="tspan883"
         x="129.35052"
         y="39.897503"
         style="fill:#212529;stroke-width:0.264583">Kontext A</tspan></text>
    <text
       xml:space="preserve"
       style="font-size:3.88056px;line-height:1.25;font-family:sans-serif;stroke-width:0.264583"
       x="130.2421"
       y="51.774014"
       id="text867"><tspan
         sodipodi:role="line"
         id="tspan865"
         x="130.2421"
         y="51.774014"
         style="stroke-width:0.264583">SP</tspan></text>
    <text
       xml:space="preserve"
       style="font-size:3.88056px;line-height:1.25;font-family:sans-serif;stroke-width:0.264583"
       x="130.74496"
       y="55.506683"
       id="text871"><tspan
         sodipodi:role="line"
         id="tspan869"
         x="130.74496"
         y="55.506683"
         style="stroke-width:0.264583">IP</tspan></text>
    <text
       xml:space="preserve"
       style="font-size:3.88056px;line-height:1.25;font-family:sans-serif;stroke-width:0.264583"
       x="130.45833"
       y="48.280704"
       id="text875"><tspan
         sodipodi:role="line"
         id="tspan873"
         x="130.45833"
         y="48.280704"
         style="stroke-width:0.264583">Hi</tspan></text>
    <text
       xml:space="preserve"
       style="font-size:3.88056px;line-height:1.25;font-family:sans-serif;stroke-width:0.264583"
       x="130.1489"
       y="44.388046"
       id="text879"><tspan
         sodipodi:role="line"
         id="tspan877"
         x="130.1489"
         y="44.388046"
         style="stroke-width:0.264583">Lo</tspan></text>
    <rect
       style="fill:#212529;stroke:#343a40;stroke-width:0.264999"
       id="rect881"
       width="10.589964"
       height="3.5111201"
       x="136.03111"
       y="41.472519" />
    <text
       xml:space="preserve"
       style="font-size:3.88056px;line-height:1.25;font-family:sans-serif;fill:#f8f9fa;stroke-width:0.264583"
       x="136.48106"
       y="44.587273"
       id="text886"><tspan
         sodipodi:role="line"
         id="tspan884"
         x="136.48106"
         y="44.587273"
         style="fill:#f8f9fa;stroke-width:0.264583">4000</tspan></text>
    <rect
       style="fill:#212529;stroke:#343a40;stroke-width:0.264999"
       id="rect881-6"
       width="10.589965"
       height="3.5111201"
       x="136.03111"
       y="44.983639" />
    <text
       xml:space="preserve"
       style="font-size:3.88056px;line-height:1.25;font-family:sans-serif;fill:#f8f9fa;stroke-width:0.264583"
       x="136.48106"
       y="48.098392"
       id="text886-7"><tspan
         sodipodi:role="line"
         id="tspan884-5"
         x="136.48106"
         y="48.098392"
         style="fill:#f8f9fa;stroke-width:0.264583">5000</tspan></text>
    <rect
       style="fill:#212529;stroke:#343a40;stroke-width:0.264999"
       id="rect881-3"
       width="10.589965"
       height="3.5111201"
       x="136.03111"
       y="48.494759" />
    <text
       xml:space="preserve"
       style="font-size:3.88056px;line-height:1.25;font-family:sans-serif;fill:#f8f9fa;stroke-width:0.264583"
       x="136.48106"
       y="51.609512"
       id="text886-5"><tspan
         sodipodi:role="line"
         id="tspan884-6"
         x="136.48106"
         y="51.609512"
         style="fill:#f8f9fa;stroke-width:0.264583">430A</tspan></text>
    <rect
       style="fill:#212529;stroke:#343a40;stroke-width:0.264999"
       id="rect881-2"
       width="10.589965"
       height="3.5111201"
       x="136.03111"
       y="52.005878" />
    <text
       xml:space="preserve"
       style="font-size:3.88056px;line-height:1.25;font-family:sans-serif;fill:#f8f9fa;stroke-width:0.264583"
       x="136.48106"
       y="55.120632"
       id="text886-9"><tspan
         sodipodi:role="line"
         id="tspan884-1"
         x="136.48106"
         y="55.120632"
         style="fill:#f8f9fa;stroke-width:0.264583">4EE0</tspan></text>
    <rect
       style="fill:#fff3bf;stroke:#ffec99;stroke-width:0.308216"
       id="rect848-2"
       width="18.815056"
       height="20.706011"
       x="152.6021"
       y="36.3526" />
    <text
       xml:space="preserve"
       style="font-size:3.88056px;line-height:1.25;font-family:sans-serif;fill:#212529;stroke-width:0.264583"
       x="152.93443"
       y="39.897503"
       id="text885-7"><tspan
         sodipodi:role="line"
         id="tspan883-0"
         x="152.93443"
         y="39.897503"
         style="fill:#212529;stroke-width:0.264583">Kontext B</tspan></text>
    <text
       xml:space="preserve"
       style="font-size:3.88056px;line-height:1.25;font-family:sans-serif;stroke-width:0.264583"
       x="153.826"
       y="51.774014"
       id="text867-9"><tspan
         sodipodi:role="line"
         id="tspan865-3"
         x="153.826"
         y="51.774014"
         style="stroke-width:0.264583">SP</tspan></text>
    <text
       xml:space="preserve"
       style="font-size:3.88056px;line-height:1.25;font-family:sans-serif;stroke-width:0.264583"
       x="154.32887"
       y="55.506683"
       id="text871-6"><tspan
         sodipodi:role="line"
         id="tspan869-0"
         x="154.32887"
         y="55.506683"
         style="stroke-width:0.264583">IP</tspan></text>
    <text
       xml:space="preserve"
       style="font-size:3.88056px;line-height:1.25;font-family:sans-serif;stroke-width:0.264583"
       x="154.04224"
       y="48.280704"
       id="text875-6"><tspan
         sodipodi:role="line"
         id="tspan873-2"
         x="154.04224"
         y="48.280704"
         style="stroke-width:0.264583">Hi</tspan></text>
    <text
       xml:space="preserve"
       style="font-size:3.88056px;line-height:1.25;font-family:sans-serif;stroke-width:0.264583"
       x="153.7328"
       y="44.388046"
       id="text879-6"><tspan
         sodipodi:role="line"
         id="tspan877-1"
         x="153.7328"
         y="44.388046"
         style="stroke-width:0.264583">Lo</tspan></text>
    <rect
       style="fill:#212529;stroke:#343a40;stroke-width:0.264999"
       id="rect881-8"
       width="10.589965"
       height="3.5111201"
       x="159.61502"
       y="41.472519" />
    <text
       xml:space="preserve"
       style="font-size:3.88056px;line-height:1.25;font-family:sans-serif;fill:#f8f9fa;stroke-width:0.264583"
       x="160.06497"
       y="44.587273"
       id="text886-79"><tspan
         sodipodi:role="line"
         id="tspan884-2"
         x="160.06497"
         y="44.587273"
         style="fill:#f8f9fa;stroke-width:0.264583">5000</tspan></text>
    <rect
       style="fill:#212529;stroke:#343a40;stroke-width:0.264999"
       id="rect881-6-0"
       width="10.589966"
       height="3.5111201"
       x="159.61502"
       y="44.983639" />
    <text
       xml:space="preserve"
       style="font-size:3.88056px;line-height:1.25;font-family:sans-serif;fill:#f8f9fa;stroke-width:0.264583"
       x="160.06497"
       y="48.098392"
       id="text886-7-2"><tspan
         sodipodi:role="line"
         id="tspan884-5-3"
         x="160.06497"
         y="48.098392"
         style="fill:#f8f9fa;stroke-width:0.264583">F000</tspan></text>
    <rect
       style="fill:#212529;stroke:#343a40;stroke-width:0.264999"
       id="rect881-3-7"
       width="10.589966"
       height="3.5111201"
       x="159.61502"
       y="48.494759" />
    <text
       xml:space="preserve"
       style="font-size:3.88056px;line-height:1.25;font-family:sans-serif;fill:#f8f9fa;stroke-width:0.264583"
       x="160.06497"
       y="51.609512"
       id="text886-5-5"><tspan
         sodipodi:role="line"
         id="tspan884-6-9"
         x="160.06497"
         y="51.609512"
         style="fill:#f8f9fa;stroke-width:0.264583">62E2</tspan></text>
    <rect
       style="fill:#212529;stroke:#343a40;stroke-width:0.264999"
       id="rect881-2-2"
       width="10.589966"
       height="3.5111201"
       x="159.61502"
       y="52.005878" />
    <text
       xml:space="preserve"
       style="font-size:3.88056px;line-height:1.25;font-family:sans-serif;fill:#f8f9fa;stroke-width:0.264583"
       x="160.06497"
       y="55.120632"
       id="text886-9-2"><tspan
         sodipodi:role="line"
         id="tspan884-1-8"
         x="160.06497"
         y="55.120632"
         style="fill:#f8f9fa;stroke-width:0.264583">E340</tspan></text>
    <text
       xml:space="preserve"
       style="font-size:3.88056px;line-height:1.25;font-family:sans-serif;fill:#212529;stroke-width:0.264583"
       x="139.11449"
       y="66.971733"
       id="text1043"><tspan
         sodipodi:role="line"
         id="tspan1041"
         x="139.11449"
         y="66.971733"
         style="fill:#212529;stroke-width:0.264583">Programm A</tspan></text>
    <text
       xml:space="preserve"
       style="font-size:3.88056px;line-height:1.25;font-family:sans-serif;fill:#212529;stroke-width:0.264583"
       x="139.19028"
       y="93.509628"
       id="text1043-9"><tspan
         sodipodi:role="line"
         id="tspan1041-7"
         x="139.19028"
         y="93.509628"
         style="fill:#212529;stroke-width:0.264583">Programm B</tspan></text>
    <text
       xml:space="preserve"
       style="font-size:3.88056px;line-height:1.25;font-family:sans-serif;fill:#212529;stroke-width:0.264583"
       x="141.0974"
       y="111.77947"
       id="text1065"><tspan
         sodipodi:role="line"
         id="tspan1063"
         x="141.0974"
         y="111.77947"
         style="fill:#212529;stroke-width:0.264583">unbenutzt</tspan></text>
    <path
       style="fill:#212529;stroke:#212529;stroke-width:0.255699;stroke-linecap:butt;stroke-linejoin:miter;stroke-miterlimit:4;stroke-dasharray:none;stroke-opacity:1;marker-start:url(#Arrow2Mstart)"
       d="m 174.88958,58.208333 h 7.14375"
       id="path1071" />
    <text
       xml:space="preserve"
       style="font-size:3.88056px;line-height:1.25;font-family:sans-serif;fill:#212529;stroke-width:0.264583"
       x="182.13039"
       y="59.53125"
       id="text1383"><tspan
         sodipodi:role="line"
         id="tspan1381"
         x="182.13039"
         y="59.53125"
         style="fill:#212529;stroke-width:0.264583">4000</tspan></text>
    <path
       style="fill:none;stroke:#000000;stroke-width:0.264583px;stroke-linecap:butt;stroke-linejoin:miter;stroke-opacity:1"
       d="M 125.67708,75.406249 H 174.625"
       id="path1387" />
    <g
       aria-label="(text, data, bss, stack)"
       id="text1391"
       style="font-size:3.88056px;line-height:1.25;font-family:sans-serif;fill:#212529;stroke-width:0.264583"
       transform="translate(-0.494015)">
      <path
         d="m 132.01318,72.463719 q -0.36002,-0.413068 -0.52676,-0.848873 -0.16674,-0.4377 -0.16674,-0.96256 0,-0.53623 0.16674,-0.966351 0.16674,-0.432015 0.52676,-0.850767 h 0.36948 q -0.36948,0.356223 -0.56465,0.82045 -0.19327,0.464227 -0.19327,0.996668 0,0.538124 0.19706,0.998562 0.19706,0.458542 0.56086,0.812871 z"
         style="fill:#212529;stroke-width:0.264583"
         id="path1393" />
      <path
         d="m 133.85303,71.715271 q -0.18948,0.05874 -0.37517,0.05874 -0.30317,0 -0.4358,-0.159164 -0.13075,-0.159163 -0.13075,-0.500228 v -1.114145 h -0.28422 v -0.272852 h 0.28422 v -0.553283 h 0.32591 v 0.553283 h 0.50402 v 0.272852 h -0.50402 v 1.051616 q 0,0.240641 0.0474,0.344855 0.0493,0.104214 0.21601,0.104214 0.144,0 0.26717,-0.05305 z"
         style="fill:#212529;stroke-width:0.264583"
         id="path1395" />
      <path
         d="m 134.44042,70.760289 q 0,0.39412 0.13453,0.562757 0.13453,0.166743 0.43202,0.166743 0.13263,0 0.23306,-0.05495 0.10042,-0.05684 0.19327,-0.181901 l 0.26906,0.166742 q -0.11369,0.170533 -0.27664,0.263378 -0.16295,0.09095 -0.44149,0.09095 -0.44338,0 -0.66318,-0.257693 -0.2179,-0.257694 -0.2179,-0.778765 0,-0.545704 0.21221,-0.805292 0.21412,-0.261483 0.64424,-0.261483 0.38654,0 0.57981,0.223587 0.19327,0.221692 0.19327,0.684024 v 0.181901 z m 0.97393,-0.255798 q -0.004,-0.267168 -0.11369,-0.414962 -0.108,-0.147795 -0.35243,-0.147795 -0.23306,0 -0.35054,0.134531 -0.11558,0.132636 -0.15348,0.428226 z"
         style="fill:#212529;stroke-width:0.264583"
         id="path1397" />
      <path
         d="m 137.33379,71.715271 -0.45665,-0.756027 -0.4737,0.756027 h -0.36949 l 0.65939,-0.981509 -0.65181,-1.006141 h 0.3998 l 0.45855,0.754132 0.46991,-0.754132 h 0.37138 l -0.65939,0.983404 0.65939,1.004246 z"
         style="fill:#212529;stroke-width:0.264583"
         id="path1399" />
      <path
         d="m 139.16227,71.715271 q -0.18948,0.05874 -0.37517,0.05874 -0.30317,0 -0.4358,-0.159164 -0.13074,-0.159163 -0.13074,-0.500228 v -1.114145 h -0.28422 v -0.272852 h 0.28422 v -0.553283 h 0.3259 v 0.553283 h 0.50402 v 0.272852 h -0.50402 v 1.051616 q 0,0.240641 0.0474,0.344855 0.0493,0.104214 0.21601,0.104214 0.14401,0 0.26717,-0.05305 z"
         style="fill:#212529;stroke-width:0.264583"
         id="path1401" />
      <path
         d="m 139.57345,72.270449 q 0.0701,-0.08716 0.11368,-0.238746 0.0455,-0.149689 0.0455,-0.289905 -0.11179,0 -0.16106,-0.04927 -0.0474,-0.05116 -0.0474,-0.162953 0,-0.106109 0.0512,-0.159163 0.0531,-0.05495 0.17622,-0.05495 0.12506,0 0.17811,0.06442 0.055,0.06442 0.055,0.187585 0,0.233061 -0.0701,0.422542 -0.0682,0.191375 -0.14211,0.280431 z"
         style="fill:#212529;stroke-width:0.264583"
         id="path1403" />
      <path
         d="m 142.90262,71.715271 v -0.19706 q -0.1118,0.108004 -0.26906,0.181902 -0.15727,0.0739 -0.33538,0.0739 -0.35812,0 -0.55329,-0.269062 -0.19516,-0.270957 -0.19516,-0.767396 0,-0.486965 0.21222,-0.77687 0.21221,-0.289905 0.58739,-0.289905 0.30127,0 0.55328,0.219797 V 68.89391 h 0.3278 v 2.821364 z m 0,-1.540476 q -0.25959,-0.214113 -0.5116,-0.214113 -0.22169,0 -0.3638,0.187586 -0.14022,0.18569 -0.14022,0.581705 0,0.752237 0.4737,0.752237 0.15538,0 0.29559,-0.07769 0.14211,-0.07769 0.24633,-0.178112 z"
         style="fill:#212529;stroke-width:0.264583"
         id="path1405" />
      <path
         d="m 145.00396,71.715271 v -0.248219 q -0.15159,0.132636 -0.30507,0.219797 -0.15348,0.08716 -0.34675,0.08716 -0.28422,0 -0.43959,-0.172427 -0.15348,-0.174322 -0.15348,-0.445279 0,-0.204639 0.0796,-0.33917 0.0815,-0.136426 0.23306,-0.214113 0.15348,-0.07958 0.44339,-0.113689 l 0.48886,-0.04358 v -0.09663 q 0,-0.229272 -0.12885,-0.312643 -0.12695,-0.08337 -0.35243,-0.08337 -0.20085,0 -0.31075,0.07011 -0.10801,0.07011 -0.15538,0.151585 l -0.26716,-0.162953 q 0.0909,-0.164848 0.27664,-0.252009 0.18758,-0.08906 0.46423,-0.08906 0.42822,0 0.61391,0.155374 0.18569,0.155374 0.18569,0.538124 v 1.350996 z m 0,-1.008036 -0.31833,0.03032 q -0.32401,0.02842 -0.45665,0.126952 -0.13264,0.09664 -0.13264,0.28422 0,0.178112 0.0891,0.255799 0.0891,0.07769 0.26717,0.07769 0.0739,0 0.1459,-0.02653 0.072,-0.02842 0.14211,-0.06821 0.0701,-0.04169 0.13453,-0.09285 0.0663,-0.05305 0.12885,-0.102319 z"
         style="fill:#212529;stroke-width:0.264583"
         id="path1407" />
      <path
         d="m 146.91392,71.715271 q -0.18948,0.05874 -0.37517,0.05874 -0.30317,0 -0.43581,-0.159164 -0.13074,-0.159163 -0.13074,-0.500228 v -1.114145 h -0.28422 v -0.272852 h 0.28422 v -0.553283 h 0.32591 v 0.553283 h 0.50402 v 0.272852 h -0.50402 v 1.051616 q 0,0.240641 0.0474,0.344855 0.0493,0.104214 0.21601,0.104214 0.144,0 0.26716,-0.05305 z"
         style="fill:#212529;stroke-width:0.264583"
         id="path1409" />
      <path
         d="m 148.46955,71.715271 v -0.248219 q -0.15158,0.132636 -0.30506,0.219797 -0.15348,0.08716 -0.34675,0.08716 -0.28422,0 -0.43959,-0.172427 -0.15348,-0.174322 -0.15348,-0.445279 0,-0.204639 0.0796,-0.33917 0.0815,-0.136426 0.23306,-0.214113 0.15348,-0.07958 0.44338,-0.113689 l 0.48886,-0.04358 v -0.09663 q 0,-0.229272 -0.12884,-0.312643 -0.12695,-0.08337 -0.35244,-0.08337 -0.20085,0 -0.31074,0.07011 -0.10801,0.07011 -0.15538,0.151585 L 147.255,70.01185 q 0.091,-0.164848 0.27665,-0.252009 0.18758,-0.08906 0.46422,-0.08906 0.42823,0 0.61392,0.155374 0.18569,0.155374 0.18569,0.538124 v 1.350996 z m 0,-1.008036 -0.31832,0.03032 q -0.32401,0.02842 -0.45665,0.126952 -0.13264,0.09664 -0.13264,0.28422 0,0.178112 0.0891,0.255799 0.089,0.07769 0.26717,0.07769 0.0739,0 0.1459,-0.02653 0.072,-0.02842 0.14211,-0.06821 0.0701,-0.04169 0.13453,-0.09285 0.0663,-0.05305 0.12884,-0.102319 z"
         style="fill:#212529;stroke-width:0.264583"
         id="path1411" />
      <path
         d="m 149.44727,72.270449 q 0.0701,-0.08716 0.11369,-0.238746 0.0455,-0.149689 0.0455,-0.289905 -0.1118,0 -0.16106,-0.04927 -0.0474,-0.05116 -0.0474,-0.162953 0,-0.106109 0.0512,-0.159163 0.053,-0.05495 0.17621,-0.05495 0.12506,0 0.17812,0.06442 0.0549,0.06442 0.0549,0.187585 0,0.233061 -0.0701,0.422542 -0.0682,0.191375 -0.14211,0.280431 z"
         style="fill:#212529;stroke-width:0.264583"
         id="path1413" />
      <path
         d="m 153.20467,70.707235 q 0,0.502123 -0.20653,0.784449 -0.20464,0.282326 -0.57413,0.282326 -0.15916,0 -0.31075,-0.06442 -0.15158,-0.06442 -0.26337,-0.157269 v 0.162953 h -0.32591 V 68.89391 h 0.32591 v 1.032668 q 0.11179,-0.108003 0.26906,-0.181901 0.15727,-0.0739 0.33727,-0.0739 0.3676,0 0.55708,0.269062 0.19137,0.269062 0.19137,0.767396 z m -0.33727,0.0076 q 0,-0.397909 -0.12127,-0.57602 -0.12127,-0.178112 -0.35244,-0.178112 -0.15158,0 -0.29369,0.07769 -0.14211,0.07769 -0.25011,0.178112 v 1.051616 q 0.108,0.09095 0.25011,0.153479 0.14211,0.06063 0.27854,0.06063 0.21979,0 0.35432,-0.185691 0.13454,-0.185691 0.13454,-0.581704 z"
         style="fill:#212529;stroke-width:0.264583"
         id="path1415" />
      <path
         d="m 155.10705,71.179041 q 0,0.278537 -0.19705,0.4377 -0.19706,0.157269 -0.56087,0.157269 -0.24822,0 -0.44528,-0.09285 -0.19706,-0.09474 -0.28801,-0.265273 l 0.26149,-0.159164 q 0.14969,0.24064 0.48128,0.24064 0.216,0 0.32211,-0.08148 0.10801,-0.08337 0.10801,-0.223587 0,-0.08337 -0.0379,-0.134531 -0.0379,-0.05306 -0.11748,-0.09095 -0.0796,-0.03979 -0.3259,-0.106109 -0.35433,-0.08148 -0.50023,-0.225482 -0.14401,-0.144005 -0.14401,-0.38275 0,-0.263378 0.18948,-0.422542 0.18948,-0.159163 0.52486,-0.159163 0.25959,0 0.43581,0.102319 0.17622,0.10232 0.25769,0.246325 l -0.25958,0.159163 q -0.15538,-0.233061 -0.44149,-0.233061 -0.16296,0 -0.27665,0.072 -0.11179,0.072 -0.11179,0.223587 0,0.134531 0.0985,0.195165 0.0985,0.06063 0.30885,0.111793 0.33728,0.08716 0.46613,0.162954 0.12884,0.07579 0.18948,0.187585 0.0625,0.109899 0.0625,0.280431 z"
         style="fill:#212529;stroke-width:0.264583"
         id="path1417" />
      <path
         d="m 156.98481,71.179041 q 0,0.278537 -0.19706,0.4377 -0.19706,0.157269 -0.56086,0.157269 -0.24822,0 -0.44528,-0.09285 -0.19706,-0.09474 -0.28801,-0.265273 l 0.26148,-0.159164 q 0.14969,0.24064 0.48128,0.24064 0.21601,0 0.32212,-0.08148 0.108,-0.08337 0.108,-0.223587 0,-0.08337 -0.0379,-0.134531 -0.0379,-0.05306 -0.11747,-0.09095 -0.0796,-0.03979 -0.32591,-0.106109 -0.35433,-0.08148 -0.50023,-0.225482 -0.144,-0.144005 -0.144,-0.38275 0,-0.263378 0.18948,-0.422542 0.18948,-0.159163 0.52486,-0.159163 0.25959,0 0.4358,0.102319 0.17622,0.10232 0.2577,0.246325 l -0.25959,0.159163 q -0.15538,-0.233061 -0.44149,-0.233061 -0.16296,0 -0.27664,0.072 -0.1118,0.072 -0.1118,0.223587 0,0.134531 0.0985,0.195165 0.0985,0.06063 0.30886,0.111793 0.33727,0.08716 0.46612,0.162954 0.12884,0.07579 0.18948,0.187585 0.0625,0.109899 0.0625,0.280431 z"
         style="fill:#212529;stroke-width:0.264583"
         id="path1419" />
      <path
         d="m 157.52672,72.270449 q 0.0701,-0.08716 0.11369,-0.238746 0.0455,-0.149689 0.0455,-0.289905 -0.11179,0 -0.16105,-0.04927 -0.0474,-0.05116 -0.0474,-0.162953 0,-0.106109 0.0511,-0.159163 0.0531,-0.05495 0.17622,-0.05495 0.12506,0 0.17811,0.06442 0.055,0.06442 0.055,0.187585 0,0.233061 -0.0701,0.422542 -0.0682,0.191375 -0.14211,0.280431 z"
         style="fill:#212529;stroke-width:0.264583"
         id="path1421" />
      <path
         d="m 160.962,71.179041 q 0,0.278537 -0.19706,0.4377 -0.19706,0.157269 -0.56086,0.157269 -0.24822,0 -0.44528,-0.09285 -0.19706,-0.09474 -0.28801,-0.265273 l 0.26148,-0.159164 q 0.14969,0.24064 0.48128,0.24064 0.21601,0 0.32212,-0.08148 0.108,-0.08337 0.108,-0.223587 0,-0.08337 -0.0379,-0.134531 -0.0379,-0.05306 -0.11748,-0.09095 -0.0796,-0.03979 -0.32591,-0.106109 -0.35433,-0.08148 -0.50023,-0.225482 -0.144,-0.144005 -0.144,-0.38275 0,-0.263378 0.18948,-0.422542 0.18948,-0.159163 0.52486,-0.159163 0.25959,0 0.43581,0.102319 0.17621,0.10232 0.25769,0.246325 l -0.25959,0.159163 q -0.15537,-0.233061 -0.44149,-0.233061 -0.16295,0 -0.27664,0.072 -0.11179,0.072 -0.11179,0.223587 0,0.134531 0.0985,0.195165 0.0985,0.06063 0.30885,0.111793 0.33728,0.08716 0.46612,0.162954 0.12885,0.07579 0.18948,0.187585 0.0625,0.109899 0.0625,0.280431 z"
         style="fill:#212529;stroke-width:0.264583"
         id="path1423" />
      <path
         d="m 162.43616,71.715271 q -0.18948,0.05874 -0.37517,0.05874 -0.30317,0 -0.43581,-0.159164 -0.13074,-0.159163 -0.13074,-0.500228 v -1.114145 h -0.28422 v -0.272852 h 0.28422 v -0.553283 h 0.32591 v 0.553283 h 0.50402 v 0.272852 h -0.50402 v 1.051616 q 0,0.240641 0.0474,0.344855 0.0493,0.104214 0.21601,0.104214 0.144,0 0.26716,-0.05305 z"
         style="fill:#212529;stroke-width:0.264583"
         id="path1425" />
      <path
         d="m 163.99179,71.715271 v -0.248219 q -0.15158,0.132636 -0.30506,0.219797 -0.15348,0.08716 -0.34675,0.08716 -0.28422,0 -0.43959,-0.172427 -0.15348,-0.174322 -0.15348,-0.445279 0,-0.204639 0.0796,-0.33917 0.0815,-0.136426 0.23306,-0.214113 0.15348,-0.07958 0.44338,-0.113689 l 0.48886,-0.04358 v -0.09663 q 0,-0.229272 -0.12884,-0.312643 -0.12696,-0.08337 -0.35244,-0.08337 -0.20085,0 -0.31075,0.07011 -0.108,0.07011 -0.15537,0.151585 l -0.26717,-0.162953 q 0.0909,-0.164848 0.27664,-0.252009 0.18759,-0.08906 0.46423,-0.08906 0.42823,0 0.61392,0.155374 0.18569,0.155374 0.18569,0.538124 v 1.350996 z m 0,-1.008036 -0.31832,0.03032 q -0.32402,0.02842 -0.45665,0.126952 -0.13264,0.09664 -0.13264,0.28422 0,0.178112 0.0891,0.255799 0.0891,0.07769 0.26717,0.07769 0.0739,0 0.1459,-0.02653 0.072,-0.02842 0.14211,-0.06821 0.0701,-0.04169 0.13453,-0.09285 0.0663,-0.05305 0.12884,-0.102319 z"
         style="fill:#212529;stroke-width:0.264583"
         id="path1427" />
      <path
         d="m 166.43988,71.408313 q -0.0928,0.159163 -0.25769,0.263377 -0.16485,0.10232 -0.45475,0.10232 -0.4377,0 -0.6594,-0.263378 -0.22169,-0.265273 -0.22169,-0.784449 0,-0.519177 0.2198,-0.786344 0.2198,-0.269062 0.64802,-0.269062 0.49076,0 0.69919,0.363802 l -0.26717,0.162953 q -0.0739,-0.115583 -0.17432,-0.180006 -0.0985,-0.06442 -0.26149,-0.06442 -0.28611,0 -0.40738,0.208428 -0.11937,0.206534 -0.11937,0.572231 0,0.278536 0.0568,0.43391 0.0569,0.155374 0.17622,0.238746 0.12127,0.08337 0.30696,0.08337 0.15916,0 0.25959,-0.05874 0.10042,-0.06063 0.18948,-0.185691 z"
         style="fill:#212529;stroke-width:0.264583"
         id="path1429" />
      <path
         d="m 168.06942,71.715271 -0.63097,-0.892453 -0.21412,0.236851 v 0.655602 h -0.3259 v -2.821364 h 0.3259 v 1.762168 l 0.80719,-0.928454 h 0.3998 l -0.79203,0.869715 0.83372,1.117935 z"
         style="fill:#212529;stroke-width:0.264583"
         id="path1431" />
      <path
         d="m 168.71933,72.463719 q 0.37138,-0.365697 0.56276,-0.822345 0.19327,-0.458543 0.19327,-0.989088 0,-0.48507 -0.17622,-0.954982 -0.17622,-0.469912 -0.57981,-0.862136 h 0.36759 q 0.35812,0.413067 0.52676,0.845083 0.16864,0.432015 0.16864,0.972035 0,0.521071 -0.16296,0.949297 -0.16105,0.428226 -0.53244,0.862136 z"
         style="fill:#212529;stroke-width:0.264583"
         id="path1433" />
    </g>
    <path
       style="fill:#212529;stroke:#212529;stroke-width:0.255699;stroke-linecap:butt;stroke-linejoin:miter;stroke-miterlimit:4;stroke-dasharray:none;stroke-opacity:1;marker-start:url(#Arrow2Mstart-3)"
       d="m 174.88958,75.40625 h 7.14375"
       id="path1071-1" />
    <text
       xml:space="preserve"
       style="font-size:3.88056px;line-height:1.25;font-family:sans-serif;fill:#212529;stroke-width:0.264583"
       x="182.1304"
       y="76.729164"
       id="text1383-2"><tspan
         sodipodi:role="line"
         id="tspan1381-9"
         x="182.1304"
         y="76.729164"
         style="fill:#212529;stroke-width:0.264583">5000</tspan></text>
    <g
       aria-label="(text, data, bss, stack)"
       id="text1391-3"
       style="font-size:3.88056px;line-height:1.25;font-family:sans-serif;fill:#212529;stroke-width:0.264583"
       transform="translate(-0.494015,26.63911)">
      <path
         d="m 132.01318,72.463719 q -0.36002,-0.413068 -0.52676,-0.848873 -0.16674,-0.4377 -0.16674,-0.96256 0,-0.53623 0.16674,-0.966351 0.16674,-0.432015 0.52676,-0.850767 h 0.36948 q -0.36948,0.356223 -0.56465,0.82045 -0.19327,0.464227 -0.19327,0.996668 0,0.538124 0.19706,0.998562 0.19706,0.458542 0.56086,0.812871 z"
         style="fill:#212529;stroke-width:0.264583"
         id="path1393-1" />
      <path
         d="m 133.85303,71.715271 q -0.18948,0.05874 -0.37517,0.05874 -0.30317,0 -0.4358,-0.159164 -0.13075,-0.159163 -0.13075,-0.500228 v -1.114145 h -0.28422 v -0.272852 h 0.28422 v -0.553283 h 0.32591 v 0.553283 h 0.50402 v 0.272852 h -0.50402 v 1.051616 q 0,0.240641 0.0474,0.344855 0.0493,0.104214 0.21601,0.104214 0.144,0 0.26717,-0.05305 z"
         style="fill:#212529;stroke-width:0.264583"
         id="path1395-9" />
      <path
         d="m 134.44042,70.760289 q 0,0.39412 0.13453,0.562757 0.13453,0.166743 0.43202,0.166743 0.13263,0 0.23306,-0.05495 0.10042,-0.05684 0.19327,-0.181901 l 0.26906,0.166742 q -0.11369,0.170533 -0.27664,0.263378 -0.16295,0.09095 -0.44149,0.09095 -0.44338,0 -0.66318,-0.257693 -0.2179,-0.257694 -0.2179,-0.778765 0,-0.545704 0.21221,-0.805292 0.21412,-0.261483 0.64424,-0.261483 0.38654,0 0.57981,0.223587 0.19327,0.221692 0.19327,0.684024 v 0.181901 z m 0.97393,-0.255798 q -0.004,-0.267168 -0.11369,-0.414962 -0.108,-0.147795 -0.35243,-0.147795 -0.23306,0 -0.35054,0.134531 -0.11558,0.132636 -0.15348,0.428226 z"
         style="fill:#212529;stroke-width:0.264583"
         id="path1397-4" />
      <path
         d="m 137.33379,71.715271 -0.45665,-0.756027 -0.4737,0.756027 h -0.36949 l 0.65939,-0.981509 -0.65181,-1.006141 h 0.3998 l 0.45855,0.754132 0.46991,-0.754132 h 0.37138 l -0.65939,0.983404 0.65939,1.004246 z"
         style="fill:#212529;stroke-width:0.264583"
         id="path1399-7" />
      <path
         d="m 139.16227,71.715271 q -0.18948,0.05874 -0.37517,0.05874 -0.30317,0 -0.4358,-0.159164 -0.13074,-0.159163 -0.13074,-0.500228 v -1.114145 h -0.28422 v -0.272852 h 0.28422 v -0.553283 h 0.3259 v 0.553283 h 0.50402 v 0.272852 h -0.50402 v 1.051616 q 0,0.240641 0.0474,0.344855 0.0493,0.104214 0.21601,0.104214 0.14401,0 0.26717,-0.05305 z"
         style="fill:#212529;stroke-width:0.264583"
         id="path1401-8" />
      <path
         d="m 139.57345,72.270449 q 0.0701,-0.08716 0.11368,-0.238746 0.0455,-0.149689 0.0455,-0.289905 -0.11179,0 -0.16106,-0.04927 -0.0474,-0.05116 -0.0474,-0.162953 0,-0.106109 0.0512,-0.159163 0.0531,-0.05495 0.17622,-0.05495 0.12506,0 0.17811,0.06442 0.055,0.06442 0.055,0.187585 0,0.233061 -0.0701,0.422542 -0.0682,0.191375 -0.14211,0.280431 z"
         style="fill:#212529;stroke-width:0.264583"
         id="path1403-4" />
      <path
         d="m 142.90262,71.715271 v -0.19706 q -0.1118,0.108004 -0.26906,0.181902 -0.15727,0.0739 -0.33538,0.0739 -0.35812,0 -0.55329,-0.269062 -0.19516,-0.270957 -0.19516,-0.767396 0,-0.486965 0.21222,-0.77687 0.21221,-0.289905 0.58739,-0.289905 0.30127,0 0.55328,0.219797 V 68.89391 h 0.3278 v 2.821364 z m 0,-1.540476 q -0.25959,-0.214113 -0.5116,-0.214113 -0.22169,0 -0.3638,0.187586 -0.14022,0.18569 -0.14022,0.581705 0,0.752237 0.4737,0.752237 0.15538,0 0.29559,-0.07769 0.14211,-0.07769 0.24633,-0.178112 z"
         style="fill:#212529;stroke-width:0.264583"
         id="path1405-5" />
      <path
         d="m 145.00396,71.715271 v -0.248219 q -0.15159,0.132636 -0.30507,0.219797 -0.15348,0.08716 -0.34675,0.08716 -0.28422,0 -0.43959,-0.172427 -0.15348,-0.174322 -0.15348,-0.445279 0,-0.204639 0.0796,-0.33917 0.0815,-0.136426 0.23306,-0.214113 0.15348,-0.07958 0.44339,-0.113689 l 0.48886,-0.04358 v -0.09663 q 0,-0.229272 -0.12885,-0.312643 -0.12695,-0.08337 -0.35243,-0.08337 -0.20085,0 -0.31075,0.07011 -0.10801,0.07011 -0.15538,0.151585 l -0.26716,-0.162953 q 0.0909,-0.164848 0.27664,-0.252009 0.18758,-0.08906 0.46423,-0.08906 0.42822,0 0.61391,0.155374 0.18569,0.155374 0.18569,0.538124 v 1.350996 z m 0,-1.008036 -0.31833,0.03032 q -0.32401,0.02842 -0.45665,0.126952 -0.13264,0.09664 -0.13264,0.28422 0,0.178112 0.0891,0.255799 0.0891,0.07769 0.26717,0.07769 0.0739,0 0.1459,-0.02653 0.072,-0.02842 0.14211,-0.06821 0.0701,-0.04169 0.13453,-0.09285 0.0663,-0.05305 0.12885,-0.102319 z"
         style="fill:#212529;stroke-width:0.264583"
         id="path1407-0" />
      <path
         d="m 146.91392,71.715271 q -0.18948,0.05874 -0.37517,0.05874 -0.30317,0 -0.43581,-0.159164 -0.13074,-0.159163 -0.13074,-0.500228 v -1.114145 h -0.28422 v -0.272852 h 0.28422 v -0.553283 h 0.32591 v 0.553283 h 0.50402 v 0.272852 h -0.50402 v 1.051616 q 0,0.240641 0.0474,0.344855 0.0493,0.104214 0.21601,0.104214 0.144,0 0.26716,-0.05305 z"
         style="fill:#212529;stroke-width:0.264583"
         id="path1409-3" />
      <path
         d="m 148.46955,71.715271 v -0.248219 q -0.15158,0.132636 -0.30506,0.219797 -0.15348,0.08716 -0.34675,0.08716 -0.28422,0 -0.43959,-0.172427 -0.15348,-0.174322 -0.15348,-0.445279 0,-0.204639 0.0796,-0.33917 0.0815,-0.136426 0.23306,-0.214113 0.15348,-0.07958 0.44338,-0.113689 l 0.48886,-0.04358 v -0.09663 q 0,-0.229272 -0.12884,-0.312643 -0.12695,-0.08337 -0.35244,-0.08337 -0.20085,0 -0.31074,0.07011 -0.10801,0.07011 -0.15538,0.151585 L 147.255,70.01185 q 0.091,-0.164848 0.27665,-0.252009 0.18758,-0.08906 0.46422,-0.08906 0.42823,0 0.61392,0.155374 0.18569,0.155374 0.18569,0.538124 v 1.350996 z m 0,-1.008036 -0.31832,0.03032 q -0.32401,0.02842 -0.45665,0.126952 -0.13264,0.09664 -0.13264,0.28422 0,0.178112 0.0891,0.255799 0.089,0.07769 0.26717,0.07769 0.0739,0 0.1459,-0.02653 0.072,-0.02842 0.14211,-0.06821 0.0701,-0.04169 0.13453,-0.09285 0.0663,-0.05305 0.12884,-0.102319 z"
         style="fill:#212529;stroke-width:0.264583"
         id="path1411-6" />
      <path
         d="m 149.44727,72.270449 q 0.0701,-0.08716 0.11369,-0.238746 0.0455,-0.149689 0.0455,-0.289905 -0.1118,0 -0.16106,-0.04927 -0.0474,-0.05116 -0.0474,-0.162953 0,-0.106109 0.0512,-0.159163 0.053,-0.05495 0.17621,-0.05495 0.12506,0 0.17812,0.06442 0.0549,0.06442 0.0549,0.187585 0,0.233061 -0.0701,0.422542 -0.0682,0.191375 -0.14211,0.280431 z"
         style="fill:#212529;stroke-width:0.264583"
         id="path1413-1" />
      <path
         d="m 153.20467,70.707235 q 0,0.502123 -0.20653,0.784449 -0.20464,0.282326 -0.57413,0.282326 -0.15916,0 -0.31075,-0.06442 -0.15158,-0.06442 -0.26337,-0.157269 v 0.162953 h -0.32591 V 68.89391 h 0.32591 v 1.032668 q 0.11179,-0.108003 0.26906,-0.181901 0.15727,-0.0739 0.33727,-0.0739 0.3676,0 0.55708,0.269062 0.19137,0.269062 0.19137,0.767396 z m -0.33727,0.0076 q 0,-0.397909 -0.12127,-0.57602 -0.12127,-0.178112 -0.35244,-0.178112 -0.15158,0 -0.29369,0.07769 -0.14211,0.07769 -0.25011,0.178112 v 1.051616 q 0.108,0.09095 0.25011,0.153479 0.14211,0.06063 0.27854,0.06063 0.21979,0 0.35432,-0.185691 0.13454,-0.185691 0.13454,-0.581704 z"
         style="fill:#212529;stroke-width:0.264583"
         id="path1415-0" />
      <path
         d="m 155.10705,71.179041 q 0,0.278537 -0.19705,0.4377 -0.19706,0.157269 -0.56087,0.157269 -0.24822,0 -0.44528,-0.09285 -0.19706,-0.09474 -0.28801,-0.265273 l 0.26149,-0.159164 q 0.14969,0.24064 0.48128,0.24064 0.216,0 0.32211,-0.08148 0.10801,-0.08337 0.10801,-0.223587 0,-0.08337 -0.0379,-0.134531 -0.0379,-0.05306 -0.11748,-0.09095 -0.0796,-0.03979 -0.3259,-0.106109 -0.35433,-0.08148 -0.50023,-0.225482 -0.14401,-0.144005 -0.14401,-0.38275 0,-0.263378 0.18948,-0.422542 0.18948,-0.159163 0.52486,-0.159163 0.25959,0 0.43581,0.102319 0.17622,0.10232 0.25769,0.246325 l -0.25958,0.159163 q -0.15538,-0.233061 -0.44149,-0.233061 -0.16296,0 -0.27665,0.072 -0.11179,0.072 -0.11179,0.223587 0,0.134531 0.0985,0.195165 0.0985,0.06063 0.30885,0.111793 0.33728,0.08716 0.46613,0.162954 0.12884,0.07579 0.18948,0.187585 0.0625,0.109899 0.0625,0.280431 z"
         style="fill:#212529;stroke-width:0.264583"
         id="path1417-6" />
      <path
         d="m 156.98481,71.179041 q 0,0.278537 -0.19706,0.4377 -0.19706,0.157269 -0.56086,0.157269 -0.24822,0 -0.44528,-0.09285 -0.19706,-0.09474 -0.28801,-0.265273 l 0.26148,-0.159164 q 0.14969,0.24064 0.48128,0.24064 0.21601,0 0.32212,-0.08148 0.108,-0.08337 0.108,-0.223587 0,-0.08337 -0.0379,-0.134531 -0.0379,-0.05306 -0.11747,-0.09095 -0.0796,-0.03979 -0.32591,-0.106109 -0.35433,-0.08148 -0.50023,-0.225482 -0.144,-0.144005 -0.144,-0.38275 0,-0.263378 0.18948,-0.422542 0.18948,-0.159163 0.52486,-0.159163 0.25959,0 0.4358,0.102319 0.17622,0.10232 0.2577,0.246325 l -0.25959,0.159163 q -0.15538,-0.233061 -0.44149,-0.233061 -0.16296,0 -0.27664,0.072 -0.1118,0.072 -0.1118,0.223587 0,0.134531 0.0985,0.195165 0.0985,0.06063 0.30886,0.111793 0.33727,0.08716 0.46612,0.162954 0.12884,0.07579 0.18948,0.187585 0.0625,0.109899 0.0625,0.280431 z"
         style="fill:#212529;stroke-width:0.264583"
         id="path1419-3" />
      <path
         d="m 157.52672,72.270449 q 0.0701,-0.08716 0.11369,-0.238746 0.0455,-0.149689 0.0455,-0.289905 -0.11179,0 -0.16105,-0.04927 -0.0474,-0.05116 -0.0474,-0.162953 0,-0.106109 0.0511,-0.159163 0.0531,-0.05495 0.17622,-0.05495 0.12506,0 0.17811,0.06442 0.055,0.06442 0.055,0.187585 0,0.233061 -0.0701,0.422542 -0.0682,0.191375 -0.14211,0.280431 z"
         style="fill:#212529;stroke-width:0.264583"
         id="path1421-2" />
      <path
         d="m 160.962,71.179041 q 0,0.278537 -0.19706,0.4377 -0.19706,0.157269 -0.56086,0.157269 -0.24822,0 -0.44528,-0.09285 -0.19706,-0.09474 -0.28801,-0.265273 l 0.26148,-0.159164 q 0.14969,0.24064 0.48128,0.24064 0.21601,0 0.32212,-0.08148 0.108,-0.08337 0.108,-0.223587 0,-0.08337 -0.0379,-0.134531 -0.0379,-0.05306 -0.11748,-0.09095 -0.0796,-0.03979 -0.32591,-0.106109 -0.35433,-0.08148 -0.50023,-0.225482 -0.144,-0.144005 -0.144,-0.38275 0,-0.263378 0.18948,-0.422542 0.18948,-0.159163 0.52486,-0.159163 0.25959,0 0.43581,0.102319 0.17621,0.10232 0.25769,0.246325 l -0.25959,0.159163 q -0.15537,-0.233061 -0.44149,-0.233061 -0.16295,0 -0.27664,0.072 -0.11179,0.072 -0.11179,0.223587 0,0.134531 0.0985,0.195165 0.0985,0.06063 0.30885,0.111793 0.33728,0.08716 0.46612,0.162954 0.12885,0.07579 0.18948,0.187585 0.0625,0.109899 0.0625,0.280431 z"
         style="fill:#212529;stroke-width:0.264583"
         id="path1423-0" />
      <path
         d="m 162.43616,71.715271 q -0.18948,0.05874 -0.37517,0.05874 -0.30317,0 -0.43581,-0.159164 -0.13074,-0.159163 -0.13074,-0.500228 v -1.114145 h -0.28422 v -0.272852 h 0.28422 v -0.553283 h 0.32591 v 0.553283 h 0.50402 v 0.272852 h -0.50402 v 1.051616 q 0,0.240641 0.0474,0.344855 0.0493,0.104214 0.21601,0.104214 0.144,0 0.26716,-0.05305 z"
         style="fill:#212529;stroke-width:0.264583"
         id="path1425-6" />
      <path
         d="m 163.99179,71.715271 v -0.248219 q -0.15158,0.132636 -0.30506,0.219797 -0.15348,0.08716 -0.34675,0.08716 -0.28422,0 -0.43959,-0.172427 -0.15348,-0.174322 -0.15348,-0.445279 0,-0.204639 0.0796,-0.33917 0.0815,-0.136426 0.23306,-0.214113 0.15348,-0.07958 0.44338,-0.113689 l 0.48886,-0.04358 v -0.09663 q 0,-0.229272 -0.12884,-0.312643 -0.12696,-0.08337 -0.35244,-0.08337 -0.20085,0 -0.31075,0.07011 -0.108,0.07011 -0.15537,0.151585 l -0.26717,-0.162953 q 0.0909,-0.164848 0.27664,-0.252009 0.18759,-0.08906 0.46423,-0.08906 0.42823,0 0.61392,0.155374 0.18569,0.155374 0.18569,0.538124 v 1.350996 z m 0,-1.008036 -0.31832,0.03032 q -0.32402,0.02842 -0.45665,0.126952 -0.13264,0.09664 -0.13264,0.28422 0,0.178112 0.0891,0.255799 0.0891,0.07769 0.26717,0.07769 0.0739,0 0.1459,-0.02653 0.072,-0.02842 0.14211,-0.06821 0.0701,-0.04169 0.13453,-0.09285 0.0663,-0.05305 0.12884,-0.102319 z"
         style="fill:#212529;stroke-width:0.264583"
         id="path1427-1" />
      <path
         d="m 166.43988,71.408313 q -0.0928,0.159163 -0.25769,0.263377 -0.16485,0.10232 -0.45475,0.10232 -0.4377,0 -0.6594,-0.263378 -0.22169,-0.265273 -0.22169,-0.784449 0,-0.519177 0.2198,-0.786344 0.2198,-0.269062 0.64802,-0.269062 0.49076,0 0.69919,0.363802 l -0.26717,0.162953 q -0.0739,-0.115583 -0.17432,-0.180006 -0.0985,-0.06442 -0.26149,-0.06442 -0.28611,0 -0.40738,0.208428 -0.11937,0.206534 -0.11937,0.572231 0,0.278536 0.0568,0.43391 0.0569,0.155374 0.17622,0.238746 0.12127,0.08337 0.30696,0.08337 0.15916,0 0.25959,-0.05874 0.10042,-0.06063 0.18948,-0.185691 z"
         style="fill:#212529;stroke-width:0.264583"
         id="path1429-5" />
      <path
         d="m 168.06942,71.715271 -0.63097,-0.892453 -0.21412,0.236851 v 0.655602 h -0.3259 v -2.821364 h 0.3259 v 1.762168 l 0.80719,-0.928454 h 0.3998 l -0.79203,0.869715 0.83372,1.117935 z"
         style="fill:#212529;stroke-width:0.264583"
         id="path1431-5" />
      <path
         d="m 168.71933,72.463719 q 0.37138,-0.365697 0.56276,-0.822345 0.19327,-0.458543 0.19327,-0.989088 0,-0.48507 -0.17622,-0.954982 -0.17622,-0.469912 -0.57981,-0.862136 h 0.36759 q 0.35812,0.413067 0.52676,0.845083 0.16864,0.432015 0.16864,0.972035 0,0.521071 -0.16296,0.949297 -0.16105,0.428226 -0.53244,0.862136 z"
         style="fill:#212529;stroke-width:0.264583"
         id="path1433-4" />
    </g>
    <path
       style="fill:none;stroke:#000000;stroke-width:0.264583px;stroke-linecap:butt;stroke-linejoin:miter;stroke-opacity:1"
       d="M 125.67708,107.15625 H 174.625"
       id="path1387-7" />
    <path
       style="fill:#212529;stroke:#212529;stroke-width:0.255699;stroke-linecap:butt;stroke-linejoin:miter;stroke-miterlimit:4;stroke-dasharray:none;stroke-opacity:1;marker-start:url(#Arrow2Mstart-3-6)"
       d="m 174.625,107.15625 h 7.14375"
       id="path1071-1-6" />
    <text
       xml:space="preserve"
       style="font-size:3.88056px;line-height:1.25;font-family:sans-serif;fill:#212529;stroke-width:0.264583"
       x="181.86583"
       y="108.47916"
       id="text1383-2-9"><tspan
         sodipodi:role="line"
         id="tspan1381-9-3"
         x="181.86583"
         y="108.47916"
         style="fill:#212529;stroke-width:0.264583">F000</tspan></text>
    <path
       style="fill:#212529;stroke:#212529;stroke-width:0.255699;stroke-linecap:butt;stroke-linejoin:miter;stroke-miterlimit:4;stroke-dasharray:none;stroke-opacity:1;marker-start:url(#Arrow2Mstart-3-7)"
       d="m 174.625,62.177083 h 7.14375"
       id="path1071-1-5" />
    <text
       xml:space="preserve"
       style="font-size:3.88056px;line-height:1.25;font-family:sans-serif;fill:#212529;stroke-width:0.264583"
       x="181.86583"
       y="63.499996"
       id="text1383-2-2"><tspan
         sodipodi:role="line"
         id="tspan1381-9-5"
         x="181.86583"
         y="63.499996"
         style="fill:#212529;stroke-width:0.264583">IP</tspan></text>
  </g>
</svg>
